<svg width="568" height="414" viewBox="0 0 568 414" fill="none" xmlns="http://www.w3.org/2000/svg">
<path fill-rule="evenodd" clip-rule="evenodd" d="M101.524 302.468C96.2202 295.881 91.5383 289.04 87.5363 282.003L87.529 281.99C87.3351 281.648 87.142 281.305 86.9505 280.962L86.9448 280.952C86.7533 280.608 86.5634 280.264 86.3752 279.92L86.3711 279.912C74.5803 258.34 69.1607 234.986 71.7841 211.414C76.2875 170.945 103.61 137.705 143.862 117.021C172.517 102.295 201.979 99.7688 231.007 81.1551C270.465 55.8533 298.664 21.1915 366.875 30.8504C473.57 45.9588 527.886 177.508 478.419 275.99C467.837 297.059 454.421 314.974 438.829 329.82L438.766 329.88L438.31 330.312L438.099 330.51L437.597 330.982L437.492 331.08C437.344 331.218 437.196 331.356 437.049 331.493H437.048C431.931 336.24 426.585 340.663 421.037 344.765L421.052 344.767C412.606 351.012 403.686 356.513 394.37 361.279C318.171 400.264 212.852 389.362 141.301 339.198C125.788 328.322 112.369 315.922 101.541 302.47L101.524 302.468Z" fill="#F2FADA"/>
<path fill-rule="evenodd" clip-rule="evenodd" d="M153.34 112.569C178.989 101.547 205.17 97.723 231.006 81.1551C253.696 66.6054 272.664 48.963 297.658 38.4302V384.704C247.418 386.039 195.579 372.868 153.34 347.075V112.569Z" fill="#73863A"/>
<path fill-rule="evenodd" clip-rule="evenodd" d="M245.352 379.808C245.352 379.808 247.527 363.013 251.878 329.424C249.337 329.354 247.246 329.54 245.605 329.983L245.834 325.314C215.698 331.049 200.63 333.916 200.63 333.916L206.058 365.925C205.456 366.176 204.858 366.444 204.265 366.735C205.45 369.743 206.043 371.247 206.043 371.247C217.86 375.191 230.914 378.42 245.208 380.934C245.21 380.934 245.257 380.558 245.352 379.808Z" fill="#1C304F"/>
<path fill-rule="evenodd" clip-rule="evenodd" d="M206.602 369.122C206.602 369.122 208.846 359.988 213.336 341.719C204.144 338.651 199.589 338.926 199.668 342.546C199.448 342.73 199.257 342.953 199.098 343.215C180.055 336.729 168.229 334.027 163.618 335.109C162.541 334.775 161.349 334.924 160.372 335.559L160.393 335.698L159.584 335.112C161.132 346.414 161.905 352.065 161.905 352.065C177.05 360.292 191.763 366.686 206.044 371.247C206.044 371.247 206.23 370.539 206.602 369.122Z" fill="#304B73"/>
<path fill-rule="evenodd" clip-rule="evenodd" d="M262.575 221.652C263.687 219.552 262.984 217.735 260.821 213.295C255.471 202.311 248.653 188.639 237.652 185.427C231.338 183.584 225.495 185.932 222.25 192.153C215.745 204.626 222.359 220.283 228.277 233.136C230.854 238.734 231.97 240.338 235.025 239.881C243.221 238.657 258.916 228.562 262.575 221.652Z" fill="#85ACFF"/>
<path fill-rule="evenodd" clip-rule="evenodd" d="M172.384 339.747C194.78 346.579 219.213 347.353 240.725 338.241C257.748 331.03 256.605 328.995 254.561 311.8C252.234 292.219 247.277 257.347 240.552 207.076C240.468 191.042 232.924 181.079 217.919 177.185C217.919 177.185 206.695 180.719 184.247 187.788C169.356 192.322 161.91 194.589 161.91 194.589C159.942 247.525 158.958 273.993 158.958 273.993C157.478 292.19 156.347 306.089 155.565 315.693C154.012 334.784 155.6 334.627 172.384 339.747Z" fill="#4985DE"/>
<path fill-rule="evenodd" clip-rule="evenodd" d="M157.275 270.487C204.176 279.072 226.732 286.755 224.944 293.536C180.209 278.538 187.243 335.108 156.994 327.809C157.181 289.595 157.275 270.487 157.275 270.487Z" fill="#275EB0"/>
<path fill-rule="evenodd" clip-rule="evenodd" d="M162.417 197.602C167.297 256.706 186.771 283.205 220.838 277.098C234.454 244.904 195.558 247.857 190.264 226.695C188.015 217.706 191.376 208.245 198.79 202.694C186.508 191.329 174.384 189.632 162.417 197.602Z" fill="#275EB0"/>
<path fill-rule="evenodd" clip-rule="evenodd" d="M313.251 84.7537H437.543V89.9913H313.251V84.7537ZM313.251 98.9477H437.543V104.186H313.251V98.9477ZM313.251 112.997H437.543V118.235H313.251V112.997ZM313.251 126.277H437.543V131.516H313.251V126.277ZM313.251 140.327H437.543V145.565H313.251V140.327ZM313.251 154.521H437.543V159.759H313.251V154.521ZM313.251 168.57H437.543V173.809H313.251V168.57ZM313.251 70.7043H437.543V75.9419H313.251V70.7043Z" fill="white"/>
<path fill-rule="evenodd" clip-rule="evenodd" d="M227.747 153.987C185.137 142.985 167.057 156.506 173.506 194.553C175.845 204.228 194.74 212.322 206.256 201.13C211.706 195.834 221.223 196.991 227.591 194.244C230.564 192.962 232.209 190.512 235.085 189.561C237.974 188.606 240.632 187.566 241.207 184.332C242.177 178.883 239.533 174.6 235.781 170.383C232.454 166.645 228.752 162.15 227.747 153.987Z" fill="#6B4014"/>
<path fill-rule="evenodd" clip-rule="evenodd" d="M226.935 158.767C212.442 168.289 207.325 179.435 211.757 186.585C225.737 187.982 238.444 187.7 226.935 158.767Z" fill="#361D05"/>
<path fill-rule="evenodd" clip-rule="evenodd" d="M283.51 202.712C296.662 203.134 309.821 203.551 322.972 203.975C336.124 204.399 349.284 204.834 362.443 205.255C363.864 205.301 365.025 206.544 365.025 208.023C365.025 221.099 365.025 234.166 365.025 247.225C365.025 260.293 365.025 273.361 365.025 286.428C365.025 287.907 363.865 289.109 362.443 289.109C349.284 289.109 336.124 289.109 322.972 289.109C309.82 289.109 296.662 289.109 283.51 289.109C282.089 289.109 280.937 287.864 280.937 286.333C280.937 272.85 280.937 259.359 280.937 245.876C280.937 232.394 280.937 218.902 280.937 205.411C280.937 203.879 282.089 202.667 283.51 202.712Z" fill="#D4EF82"/>
<path fill-rule="evenodd" clip-rule="evenodd" d="M279.079 266.399C273.664 277.941 270.956 283.713 270.956 283.713C292.507 291.258 316.465 284.225 330.53 266.224C344.594 248.223 345.639 223.255 333.128 204.14C326.201 205.222 320.093 209.284 316.413 215.256C309.75 226.071 321.955 283.758 279.079 266.399Z" fill="#CAEB66"/>
<path fill-rule="evenodd" clip-rule="evenodd" d="M389.973 347.92L394.046 360.655C394.296 360.471 394.554 360.294 394.819 360.126C394.958 360.029 395.099 359.934 395.242 359.842C395.343 360.111 395.462 360.378 395.601 360.644C412.13 351.742 425.768 342.19 436.515 331.986C436.515 331.986 436.559 331.81 436.649 331.458L437.566 325.405C436.057 326.271 434.763 327.104 433.683 327.902C427.88 317.227 414.893 312.449 403.447 317.112C391.362 322.034 385.388 335.692 389.973 347.92Z" fill="black"/>
<path fill-rule="evenodd" clip-rule="evenodd" d="M396.468 359.311L399.748 331.091L396.512 329.233L337.328 328.26L340.415 379.41C340.422 379.736 340.425 379.899 340.425 379.899C360.905 375.683 379.581 369.116 396.453 360.198C396.453 360.198 396.457 359.902 396.468 359.311Z" fill="#1A1A1A"/>
<path fill-rule="evenodd" clip-rule="evenodd" d="M354.115 375.196C359.261 358.45 375.139 353.715 370.904 330.793L337.327 328.258L340.366 378.593C340.405 379.463 340.424 379.899 340.424 379.899C345.151 378.919 349.589 377.872 353.738 376.758C353.738 376.758 353.864 376.237 354.115 375.196Z" fill="#4D4D4D"/>
<path fill-rule="evenodd" clip-rule="evenodd" d="M372.445 284.174C375.764 283.715 377.604 284.073 378.093 284.999C378.686 286.119 377.067 288.112 373.316 291.825C364.608 300.44 363.048 302.301 373.169 307.119C389.142 317.87 397.536 310.399 402.202 297.134C409.469 291.874 423.861 281.479 440.217 269.684C451.165 261.789 460.397 254.566 461.098 243.961C461.347 240.212 459.873 234.781 457.716 228.969C453.919 218.737 447.999 207.32 445.617 201.812C445.617 201.812 432.818 206.978 407.223 217.312C414.138 228.588 417.596 234.226 417.596 234.226C421.507 240.857 420.18 245.973 411.66 254.782C395.292 271.702 387.108 280.163 387.108 280.163C376.684 272.36 363.96 285.812 372.445 284.174Z" fill="#FFC0A1"/>
<path fill-rule="evenodd" clip-rule="evenodd" d="M443.972 226.786C443.972 246.997 443.972 257.102 443.972 257.102C450.667 255.1 455.254 248.937 455.254 241.944C455.254 234.951 450.667 228.788 443.972 226.786Z" fill="#EE7B3E"/>
<path fill-rule="evenodd" clip-rule="evenodd" d="M365.485 159.236C387.175 152.529 397.055 147.527 397.055 147.527C394.426 143.856 393.389 138.893 394.733 133.912C388.978 124.25 376.325 121.299 365.823 126.488C355.321 131.677 351.25 143.725 356.681 153.547C360.32 151.632 363.897 154.627 365.485 159.236Z" fill="#FFB38A"/>
<path fill-rule="evenodd" clip-rule="evenodd" d="M358.904 152.96C359.999 153.012 360.897 153.283 361.596 153.774C370.319 151.816 371.939 148.772 378.417 144.595C383.026 141.624 388.404 141.218 393.376 144.677C394.103 145.008 394.466 145.173 394.466 145.173C392.744 141.962 392.292 138.518 393.11 134.841C390.255 132.829 387.726 131.897 385.521 132.044C385.716 131.452 385.894 130.851 386.057 130.245C370.891 122.272 363.197 122.449 362.976 130.776C360.261 145.565 358.904 152.96 358.904 152.96Z" fill="#ED7433"/>
<path fill-rule="evenodd" clip-rule="evenodd" d="M358.904 152.96C359.235 152.961 359.704 153.034 360.309 153.177C369.234 146.607 370.043 136.67 383.493 136.203C372.998 127.777 366.674 125.592 364.521 129.647C360.777 145.189 358.904 152.96 358.904 152.96Z" fill="#DEA39A"/>
<path fill-rule="evenodd" clip-rule="evenodd" d="M341.745 109.004C347.814 105.991 355.07 106.709 360.432 110.855C365.794 115 368.321 121.845 366.942 128.484C369.027 135.971 366.023 149.601 356.659 154.349C349.024 158.22 349.462 150.277 346.25 145.49C342.717 140.223 339.672 138.2 339.265 133.225C339.037 130.436 339.525 127.963 339.785 125.222C340.375 118.979 338.22 115.205 341.745 109.004Z" fill="#FFC0A1"/>
<path fill-rule="evenodd" clip-rule="evenodd" d="M365.225 125.459C366.84 121.796 365.889 117.508 362.877 114.872C359.865 112.238 355.493 111.867 352.082 113.959C348.672 116.052 347.015 120.119 347.993 124.001C351.678 127.848 348.507 131.337 351.808 135.108C355.447 139.265 363.182 138.344 362.285 146.425C365.638 140.294 366.618 133.304 365.225 125.459Z" fill="#ED7433"/>
<path fill-rule="evenodd" clip-rule="evenodd" d="M340.937 118.08C346.704 115.898 349.285 116.401 348.679 119.589C348.679 119.589 345.867 120.46 340.243 122.2C339.747 121.576 339.54 120.771 339.672 119.985C339.805 119.199 340.264 118.507 340.937 118.08Z" fill="#E7B7AC"/>
<path fill-rule="evenodd" clip-rule="evenodd" d="M351.635 125.843C356.742 109.617 360.963 108.627 364.298 122.871C364.762 126.216 362.604 129.363 359.319 130.134C356.035 130.905 352.704 129.045 351.635 125.843Z" fill="#DEA39A"/>
<path fill-rule="evenodd" clip-rule="evenodd" d="M282.948 202.712C272.928 203.134 262.9 203.551 252.88 203.975C242.86 204.399 232.833 204.834 222.805 205.255C221.723 205.301 220.838 206.544 220.838 208.023C220.838 221.099 220.838 234.166 220.838 247.225C220.838 260.293 220.838 273.361 220.838 286.428C220.838 287.907 221.723 289.109 222.805 289.109C232.832 289.109 242.859 289.109 252.88 289.109C262.9 289.109 272.927 289.109 282.948 289.109C284.031 289.109 284.909 287.864 284.909 286.333C284.909 272.85 284.909 259.359 284.909 245.876C284.909 232.394 284.909 218.902 284.909 205.411C284.909 203.879 284.031 202.667 282.948 202.712Z" fill="#ACC857"/>
<path fill-rule="evenodd" clip-rule="evenodd" d="M414.508 226.851C426.927 225.802 437.009 222.23 445.165 217.031C454.564 211.041 453.696 209.379 449.803 202.054C440.553 184.642 427.246 165.486 410.563 162.107C394.898 158.933 384.469 172.024 394.781 199.235C397.576 206.611 401.053 214.227 404.833 220.683C408.118 226.296 408.351 227.372 414.508 226.851Z" fill="#7367A9"/>
<path fill-rule="evenodd" clip-rule="evenodd" d="M361.803 119.429C365.23 125.466 366.943 128.485 366.943 128.485C370.191 134.411 377.096 136.215 384.206 136.208C396.602 136.197 397.765 132.235 401.591 119.983C373.867 102.804 353.134 96.8393 339.39 102.091C336.499 109.368 342.806 110.309 344.778 116.221C346.5 121.376 347.795 129.379 349.901 120.847C351.433 114.631 353.357 104.211 361.803 119.429Z" fill="#401C00"/>
<path fill-rule="evenodd" clip-rule="evenodd" d="M405.098 154.544C377.097 165.329 363.097 170.722 363.097 170.722C359.784 159.289 369.877 150.607 393.376 144.677C400.13 142.973 400.405 142.557 403.208 149.718C404.468 152.935 405.098 154.544 405.098 154.544Z" fill="#7367A9"/>
<path fill-rule="evenodd" clip-rule="evenodd" d="M347.157 179.83C332.765 262.266 332.382 297.174 332.382 297.174C332.382 297.174 333.339 300.071 334.172 314.392C334.856 325.104 335.592 334.918 356.078 335.974C372.517 336.715 395.744 337.505 415.069 335.225C437.456 333.11 440.697 326.029 442.939 302.178C445.718 272.605 453.837 226.722 445.117 196.808C439.564 177.762 426.252 167.848 410.832 156.366C410.579 140.115 351.91 174.799 347.157 179.83Z" fill="#3E317E"/>
<path fill-rule="evenodd" clip-rule="evenodd" d="M352.194 100.297C347.406 100.061 343.138 100.659 339.389 102.091C336.499 109.368 342.805 110.309 344.778 116.221C345.132 117.283 345.469 118.466 345.798 119.6C345.629 112.645 347.906 105.773 352.194 100.297Z" fill="#965E23"/>
<path fill-rule="evenodd" clip-rule="evenodd" d="M371.329 133.151C374.858 135.418 379.487 136.212 384.205 136.208C396.601 136.197 397.764 132.235 401.591 119.983C392.047 114.069 383.332 109.485 375.445 106.229C378.45 115.365 376.865 125.406 371.329 133.151Z" fill="#210600"/>
<path fill-rule="evenodd" clip-rule="evenodd" d="M348.432 92.1532C347.703 98.7877 347.339 102.105 347.339 102.105C315.54 103.189 314.584 91.0503 348.432 92.1532Z" fill="#433876"/>
<path fill-rule="evenodd" clip-rule="evenodd" d="M346.25 90.3373C344.019 93.836 342.892 96.8751 344.908 99.6063C346.951 102.373 352.55 106.099 355.599 107.981C369.074 116.301 382.852 121.022 392.66 121.413C395.428 121.524 401.466 121.672 402.747 118.568C408.845 103.255 402.203 85.8184 387.467 78.4547C372.731 71.0909 354.815 76.2562 346.25 90.3373Z" fill="#8176B2"/>
<path d="M340.243 117.525L354.545 112.951L354.908 114.098L340.243 118.789V126.439C340.243 127.019 339.769 127.493 339.189 127.493C338.61 127.493 338.136 127.019 338.136 126.439V113.636C338.136 113.056 338.61 112.582 339.189 112.582C339.769 112.582 340.243 113.056 340.243 113.636V117.525Z" fill="white"/>
<path fill-rule="evenodd" clip-rule="evenodd" d="M354.671 111.365C357.439 111.365 359.935 115.373 360.246 120.319C360.556 125.265 358.564 129.274 355.796 129.274C353.028 129.274 350.532 125.265 350.221 120.319C349.912 115.374 351.904 111.365 354.671 111.365Z" fill="#FFCEB5"/>
<path fill-rule="evenodd" clip-rule="evenodd" d="M353.517 114.612C355.074 114.612 356.477 117.167 356.651 120.32C356.826 123.472 355.705 126.028 354.149 126.028C352.592 126.028 351.189 123.473 351.014 120.32C350.84 117.167 351.96 114.612 353.517 114.612Z" fill="#ED7433"/>
<path fill-rule="evenodd" clip-rule="evenodd" d="M354.955 117.211C355.785 117.211 356.533 118.573 356.626 120.253C356.719 121.932 356.122 123.294 355.292 123.294C354.463 123.294 353.715 121.932 353.621 120.253C353.529 118.573 354.125 117.211 354.955 117.211Z" fill="#BF2401"/>
<path fill-rule="evenodd" clip-rule="evenodd" d="M376.64 116.355C381.952 118.152 386.876 119.168 391.02 119.333C393.539 119.433 399.034 119.567 400.199 116.744C405.748 102.807 399.704 86.94 386.294 80.2381C381.776 77.9804 376.929 77.0188 372.189 77.2242C377.191 83.6143 380.174 91.6643 380.174 100.412C380.174 106.111 378.906 111.513 376.64 116.355Z" fill="#403282"/>
<path fill-rule="evenodd" clip-rule="evenodd" d="M400.134 117.19C401.459 117.005 402.224 116.564 402.831 115.323C404.605 111.432 404.037 107.279 401.381 104.728C398.725 102.176 394.481 101.704 390.552 103.524C386.622 105.344 383.745 109.114 383.21 113.143C382.94 114.462 383.359 115.255 384.877 115.71C389.837 117.094 395.49 117.855 400.134 117.19Z" fill="#210600"/>
<path fill-rule="evenodd" clip-rule="evenodd" d="M346.25 90.3364C344.019 93.836 342.892 96.8743 344.908 99.6055C346.951 102.371 352.55 106.098 355.599 107.98C361.31 111.507 367.075 114.386 372.57 116.563C359.482 108.853 364.331 98.3264 367.292 90.0895C369.01 85.3084 370.897 80.4932 370.474 75.241C360.776 76.123 351.653 81.4547 346.25 90.3364Z" fill="#A49BCE"/>
<path fill-rule="evenodd" clip-rule="evenodd" d="M337.915 293.343C366.697 249.977 372.699 216.101 355.921 191.715C428.877 231.532 370.254 312.779 437.353 305.592C436.513 333.88 411.645 330.486 390.34 330.92C379.654 331.138 369.34 330.894 359.403 330.188C346.373 329.493 339.794 325.084 339.666 316.962C338.499 301.216 337.915 293.343 337.915 293.343Z" fill="#1C1253"/>
<path fill-rule="evenodd" clip-rule="evenodd" d="M338.453 300.592C364.617 246.248 377.7 219.076 377.7 219.076C379.886 265.513 388.071 314.667 339.666 316.962C339.314 312.213 338.909 306.756 338.453 300.592Z" fill="#0A0132"/>
<path fill-rule="evenodd" clip-rule="evenodd" d="M430.918 331.47C439.37 327.102 441.393 318.63 442.939 302.179C445.718 272.606 453.838 226.722 445.117 196.809C439.565 177.763 426.253 167.849 410.833 156.367C410.642 144.12 377.282 160.796 358.815 171.913C404.497 193.675 436.075 240.297 436.075 294.305C436.075 307.193 434.277 319.66 430.918 331.47Z" fill="#5D5198"/>
<path fill-rule="evenodd" clip-rule="evenodd" d="M282.948 202.712C272.928 203.134 262.901 203.551 252.88 203.975C242.86 204.399 232.833 204.834 222.805 205.255C221.723 205.301 220.838 206.544 220.838 208.023C220.838 232.788 220.838 257.553 220.838 282.318C220.961 281.938 220.893 281.434 221.201 281.18C246.411 260.447 240.326 215.29 284.891 205.045C284.765 203.691 283.943 202.67 282.948 202.712Z" fill="#DEF29F"/>
<path fill-rule="evenodd" clip-rule="evenodd" d="M280.937 283.231C266.806 287.251 255.53 288.527 247.11 287.061C247.11 287.061 242.463 287.001 233.153 286.88C257.203 280.525 249.466 246.365 280.937 240.534C280.937 268.999 280.937 283.231 280.937 283.231Z" fill="#CAEB66"/>
<path fill-rule="evenodd" clip-rule="evenodd" d="M260.171 276.642C263.51 278.082 265.017 279.446 264.953 280.58C264.874 281.953 262.254 282.894 256.689 284.234C243.774 287.341 241.282 288.191 247.977 298.351C256.778 317.305 268.76 315.083 280.53 305.389C290.226 304.589 309.417 303.022 331.215 301.26C345.807 300.079 358.428 298.559 365.024 289.108C367.357 285.766 369.035 279.898 370.291 273.289C372.503 261.656 373.409 247.732 374.286 241.279C374.286 241.279 359.507 238.887 329.949 234.102C330.046 248.455 330.095 255.631 330.095 255.631C330.008 263.984 325.907 267.989 313.058 271.38C288.374 277.896 276.032 281.153 276.032 281.153C270.73 268.055 251.374 273.397 260.171 276.642Z" fill="#FFC0A1"/>
<path fill-rule="evenodd" clip-rule="evenodd" d="M342.209 251.41C346.012 247.472 351.448 245.558 356.878 246.248C362.307 246.938 367.094 250.15 369.793 254.915C366.086 284.9 365.765 295.163 336.279 298.462C321.054 300.165 303.12 301.156 291.902 302.388C302.169 285.853 339.286 300.745 348.151 275.655C351.169 267.11 348.836 257.587 342.209 251.41Z" fill="#FFAD81"/>
<path fill-rule="evenodd" clip-rule="evenodd" d="M331.365 247.051C343.483 253.053 354.846 255.401 365.333 255.155C377.417 254.873 377.543 252.843 378.037 243.855C379.212 222.494 377.599 197.235 364.006 184.726C351.241 172.98 334.219 179.275 328.534 210.33C326.994 218.749 325.951 227.772 325.84 235.889C325.744 242.946 325.357 244.076 331.365 247.051Z" fill="#7367A9"/>
<path fill-rule="evenodd" clip-rule="evenodd" d="M369.863 251.397C372.691 251.078 374.256 249.422 374.56 246.432C376.001 218.832 372.182 199.276 363.104 187.765C376.905 215.416 337.762 216.274 342.945 248.33C351.902 251.199 360.875 252.221 369.863 251.397Z" fill="#4A3D89"/>
<path fill-rule="evenodd" clip-rule="evenodd" d="M365.538 186.248C365.045 185.723 364.535 185.214 364.006 184.727C351.241 172.981 334.218 179.276 328.534 210.331C326.993 218.75 325.951 227.773 325.84 235.89C325.757 241.925 325.463 243.625 329.14 245.852C327.695 206.715 361.32 210.761 365.538 186.248Z" fill="#A196D4"/>
<path fill-rule="evenodd" clip-rule="evenodd" d="M283.116 287.113C279.942 286.367 277.313 284.154 276.033 281.154C291.501 277.071 303.844 273.814 313.06 271.381C316.229 270.588 319.174 269.563 321.892 268.31C324.433 267.018 326.215 265.736 327.236 264.463C328.534 263.053 329.408 261.108 329.857 258.627C337.849 270.503 328.375 284.708 312.417 282.089C308.608 281.463 304.648 280.609 300.522 281.239C293.03 282.383 290.391 288.825 283.116 287.113Z" fill="#FFDBC9"/>
<path fill-rule="evenodd" clip-rule="evenodd" d="M247.95 203.916L259.069 203.602C259.777 203.582 260.357 204.147 260.357 204.856V255.074C260.357 255.783 259.777 256.38 259.069 256.4L247.95 256.714C247.242 256.733 246.662 256.17 246.662 255.46V205.241C246.663 204.532 247.242 203.935 247.95 203.916Z" fill="white"/>
<path fill-rule="evenodd" clip-rule="evenodd" d="M249.552 283.784C254.299 283.218 253.495 287.546 251.443 290.172C246.52 296.473 231.062 300.803 218.957 289.107C196.901 283.98 154.965 282.635 148.471 261.698C147.02 257.02 146.172 251.209 145.928 244.266C167.678 241.675 178.552 240.381 178.552 240.381C178.71 248.104 177.055 254.012 184.666 258.518C190.76 262.125 225.156 272.89 225.191 273.405C227.492 272.271 235.429 270.046 237.343 272.343C238.463 273.686 232.38 275.393 231.364 276.597C229.49 278.818 234.949 281.439 240.732 282.846C243.985 283.639 247.341 284.048 249.552 283.784Z" fill="#FFC8AB"/>
<path fill-rule="evenodd" clip-rule="evenodd" d="M178.722 241.674C180.656 240.296 180.841 238.356 180.895 233.417C181.03 221.198 181.055 205.918 172.659 198.112C167.84 193.632 161.564 193.112 155.879 197.218C144.479 205.451 143.383 222.414 142.918 236.559C142.716 242.719 142.996 244.653 145.931 245.616C153.807 248.197 172.357 246.211 178.722 241.674Z" fill="#85ACFF"/>
<path fill-rule="evenodd" clip-rule="evenodd" d="M188.165 170.095L188.62 156.585C190.133 150.653 198.992 151.625 214.417 166.554C214.583 170.056 214.778 173.499 214.918 175.871C217.919 177.185 218.014 177.077 219.348 180.43C230.497 208.452 199.255 210.855 175.959 177.748L188.165 170.095Z" fill="#FFBB96"/>
<path fill-rule="evenodd" clip-rule="evenodd" d="M213.846 174.873C198.988 165.723 191.56 161.148 191.56 161.148C196.575 195.642 219.27 191.734 213.846 174.873Z" fill="#F08248"/>
<path fill-rule="evenodd" clip-rule="evenodd" d="M191.56 161.148C201.358 165.456 208.786 170.031 213.846 174.873C214.367 176.447 214.647 178.092 214.677 179.75C202.768 179.519 195.308 174.726 192.299 165.372C192.011 163.972 191.765 162.563 191.56 161.148Z" fill="#C73A1A"/>
<path fill-rule="evenodd" clip-rule="evenodd" d="M200.945 121.659C186.485 136.978 182.334 147.276 188.495 152.553C192.473 164.971 194.609 169.102 202.825 171.91C209.27 174.111 220.325 178.604 222.335 169.144C224.277 164.397 227.102 159.443 227.971 154.392C228.48 151.439 227.908 148.795 226.923 145.451C226.533 144.145 226.519 142.419 227.064 140.257C227.548 138.54 226.682 135.251 224.465 130.389C219.168 116.748 211.328 113.838 200.945 121.659Z" fill="#FFC8AB"/>
<path fill-rule="evenodd" clip-rule="evenodd" d="M214.461 174.91C218.187 175.067 221.35 173.784 222.335 169.144C224.278 164.397 227.102 159.443 227.971 154.392C228.48 151.439 227.908 148.795 226.923 145.451C226.533 144.145 226.519 142.419 227.064 140.257C227.548 138.54 226.682 135.251 224.465 130.389C221.682 123.225 218.199 119.022 214.013 117.777C215.013 119.988 215.91 122.271 216.693 124.624C222.4 141.767 221.141 159.552 214.461 174.91Z" fill="#FFDECC"/>
<path fill-rule="evenodd" clip-rule="evenodd" d="M190.214 150.938C179.447 145.07 181.002 138.504 194.878 131.239C198.247 123.405 206.752 119.126 215.044 121.094C208.042 127.692 212.472 146.129 197.614 153.364C196.834 158.312 196.732 163.984 198.553 168.65C194.1 165.311 191.754 159.004 190.214 150.938Z" fill="#F08248"/>
<path fill-rule="evenodd" clip-rule="evenodd" d="M188.176 146.871C186.958 146.346 186.859 145.537 187.88 144.442C187.88 144.442 191.832 144.475 199.736 144.543C200.027 147.554 201.944 150.163 204.731 151.336C207.035 152.307 209.625 152.166 211.784 151.014C212.839 150.34 213.754 149.433 214.445 148.331C212.933 152.014 209.529 154.574 205.574 155.003C201.619 155.433 197.746 153.663 195.479 150.39C189.748 150.471 186.882 150.513 186.882 150.513C187.222 148.752 187.653 147.539 188.176 146.871Z" fill="#C73A1A"/>
<path fill-rule="evenodd" clip-rule="evenodd" d="M167 193.377C162.108 191.681 158.461 187.633 159.83 181.642C160.709 177.79 163.525 176.24 166.205 173.082C168.751 170.081 171.174 165.629 171.698 156.37C171.903 152.753 171.838 148.608 171.514 143.847C170.966 135.775 173.959 127.864 179.714 122.181C185.467 116.497 193.411 113.606 201.468 114.263C206.892 112.975 212.609 114.13 217.111 117.421C221.612 120.713 224.449 125.811 224.873 131.375C221.63 124.312 217.592 121.489 214.832 121.253C205.325 120.44 198.906 150.816 187.254 148.562C188.376 153.921 189.241 163.002 188.509 171.686L188.512 171.685L188.502 171.775C186.143 199.369 212.911 194.792 205.932 201.436C200.881 203.535 196.246 203.097 192.028 200.121C187.393 198.659 183.767 195.166 182.072 190.752C178.73 194.34 173.886 195.763 167 193.377Z" fill="#6B4014"/>
<path d="M212.566 135.317C212.877 135.446 213.234 135.298 213.363 134.985C213.492 134.673 213.345 134.315 213.032 134.186C211.734 133.645 210.34 133.475 208.994 133.659C207.645 133.843 206.346 134.379 205.24 135.246C204.974 135.454 204.926 135.839 205.135 136.106C205.343 136.372 205.727 136.42 205.994 136.212C206.93 135.477 208.024 135.025 209.158 134.871C210.293 134.717 211.47 134.86 212.566 135.317Z" fill="#7D2D17"/>
<path d="M221.467 133.821C221.139 133.904 220.941 134.238 221.024 134.566C221.107 134.894 221.44 135.092 221.768 135.01C222.654 134.781 223.569 134.769 224.44 134.957C225.312 135.145 226.14 135.533 226.853 136.105C227.116 136.316 227.501 136.274 227.713 136.01C227.924 135.746 227.882 135.361 227.618 135.149C226.753 134.455 225.751 133.985 224.698 133.757C223.645 133.53 222.539 133.545 221.467 133.821Z" fill="#7D2D17"/>
<path fill-rule="evenodd" clip-rule="evenodd" d="M208.956 142.615C208.255 142.615 207.687 143.424 207.687 144.423C207.687 145.421 208.255 146.23 208.956 146.23C209.656 146.23 210.224 145.421 210.224 144.423C210.224 143.424 209.657 142.615 208.956 142.615Z" fill="#1A1A1A"/>
<path fill-rule="evenodd" clip-rule="evenodd" d="M211.296 139.848C210.267 139.848 209.434 140.683 209.434 141.713C209.434 142.743 210.268 143.578 211.296 143.578C212.325 143.578 213.159 142.743 213.159 141.713C213.159 140.683 212.325 139.848 211.296 139.848Z" fill="white"/>
<path fill-rule="evenodd" clip-rule="evenodd" d="M226.219 139.848C225.19 139.848 224.356 140.683 224.356 141.713C224.356 142.743 225.19 143.578 226.219 143.578C227.248 143.578 228.081 142.743 228.081 141.713C228.082 140.683 227.248 139.848 226.219 139.848Z" fill="white"/>
<path fill-rule="evenodd" clip-rule="evenodd" d="M166.204 173.083C170.993 167.739 172.763 157.994 171.513 143.848C170.965 135.776 173.958 127.864 179.713 122.182C185.467 116.498 193.41 113.608 201.467 114.264C204.147 113.627 206.934 113.58 209.634 114.126C189.161 112.804 197.067 141.984 181.587 145.075C185.755 152.725 187.838 156.55 187.838 156.55C187.541 169.523 173.97 166.662 166.204 173.083Z" fill="#361D05"/>
<path d="M202.378 139.455C203.663 138.168 205.439 137.372 207.401 137.372C209.363 137.372 211.139 138.168 212.425 139.455C213.71 140.741 214.505 142.519 214.505 144.483C214.505 146.446 213.71 148.224 212.425 149.511C211.139 150.797 209.363 151.593 207.401 151.593C205.439 151.593 203.663 150.797 202.378 149.511C201.092 148.224 200.297 146.446 200.297 144.483C200.297 142.519 201.092 140.741 202.378 139.455ZM220.827 140.31C221.798 139.243 223.139 138.585 224.616 138.585C226.094 138.585 227.434 139.244 228.405 140.31C229.387 141.387 229.995 142.879 229.995 144.531C229.995 146.182 229.387 147.674 228.405 148.752C227.434 149.818 226.093 150.477 224.616 150.477C223.14 150.477 221.799 149.818 220.827 148.752C219.845 147.674 219.237 146.182 219.237 144.531C219.237 142.879 219.845 141.387 220.827 140.31ZM207.401 136.452C205.185 136.452 203.179 137.351 201.728 138.804C200.437 140.096 199.584 141.826 199.41 143.752L185.299 143.819L185.304 145.041L199.392 144.975C199.515 146.996 200.384 148.816 201.728 150.161C203.179 151.614 205.186 152.513 207.401 152.513C209.616 152.513 211.623 151.614 213.075 150.161C214.526 148.708 215.425 146.7 215.425 144.483C215.425 143.905 215.364 143.342 215.248 142.798C215.796 142.585 216.376 142.479 216.954 142.481C217.486 142.484 218.02 142.578 218.528 142.764C218.391 143.328 218.317 143.92 218.317 144.531C218.317 146.418 219.017 148.129 220.148 149.37C221.29 150.622 222.869 151.397 224.616 151.397C226.363 151.397 227.943 150.622 229.084 149.37C230.214 148.129 230.914 146.418 230.914 144.531C230.914 142.643 230.214 140.932 229.084 139.691C227.942 138.439 226.363 137.664 224.616 137.664C222.869 137.664 221.29 138.439 220.148 139.691C219.578 140.316 219.117 141.061 218.801 141.888C218.205 141.675 217.581 141.567 216.957 141.565C216.296 141.561 215.634 141.677 215.003 141.91C214.604 140.726 213.937 139.667 213.074 138.803C211.623 137.351 209.616 136.452 207.401 136.452Z" fill="white"/>
<path fill-rule="evenodd" clip-rule="evenodd" d="M184.518 143.683C181.399 143.683 179.173 146.929 179.546 150.932C179.92 154.935 182.751 158.18 185.87 158.18C188.989 158.18 191.215 154.935 190.841 150.932C190.468 146.929 187.637 143.683 184.518 143.683Z" fill="#FAC1A0"/>
<path fill-rule="evenodd" clip-rule="evenodd" d="M184.006 146.536C182.115 146.536 180.764 148.504 180.991 150.931C181.217 153.359 182.934 155.327 184.826 155.327C186.717 155.327 188.067 153.359 187.841 150.931C187.614 148.504 185.897 146.536 184.006 146.536Z" fill="#F08248"/>
<path fill-rule="evenodd" clip-rule="evenodd" d="M185.613 148.228C184.547 148.228 183.787 149.337 183.914 150.704C184.042 152.071 185.009 153.18 186.074 153.18C187.14 153.18 187.9 152.071 187.773 150.704C187.644 149.337 186.677 148.228 185.613 148.228Z" fill="#C73A1A"/>
<path fill-rule="evenodd" clip-rule="evenodd" d="M223.754 142.831C223.137 142.831 222.637 143.544 222.637 144.422C222.637 145.3 223.137 146.012 223.754 146.012C224.371 146.012 224.87 145.3 224.87 144.422C224.87 143.544 224.371 142.831 223.754 142.831Z" fill="#1A1A1A"/>
<path d="M216.608 144.102C216.489 143.785 216.649 143.432 216.965 143.312C217.282 143.193 217.635 143.354 217.754 143.67L220.369 150.622C221.275 152.061 221.519 153.256 221.1 154.208C220.674 155.175 219.606 155.801 217.895 156.086C217.562 156.141 217.245 155.915 217.19 155.581C217.135 155.248 217.361 154.932 217.693 154.877C218.968 154.664 219.729 154.276 219.977 153.714C220.224 153.154 220.003 152.332 219.316 151.25C219.286 151.209 219.262 151.163 219.242 151.112C219.238 151.1 218.415 148.906 216.608 144.102Z" fill="#C73A1A"/>
<path d="M212.378 160.947C212.102 160.754 212.034 160.372 212.228 160.095C212.421 159.818 212.802 159.751 213.079 159.944C214.147 160.692 215.395 161.055 216.637 161.037C217.878 161.02 219.113 160.622 220.16 159.845C220.431 159.644 220.815 159.701 221.016 159.973C221.217 160.244 221.161 160.628 220.89 160.83C219.632 161.762 218.145 162.24 216.652 162.261C215.161 162.282 213.662 161.845 212.378 160.947Z" fill="#C73A1A"/>
<path d="M214.034 163.603C213.856 163.479 213.812 163.233 213.936 163.055C214.061 162.876 214.306 162.833 214.485 162.957C215.172 163.438 215.976 163.672 216.775 163.661C217.573 163.649 218.368 163.394 219.042 162.894C219.217 162.764 219.464 162.801 219.593 162.976C219.723 163.151 219.686 163.398 219.511 163.528C218.701 164.128 217.744 164.436 216.783 164.449C215.824 164.462 214.86 164.181 214.034 163.603Z" fill="#C73A1A"/>
<path fill-rule="evenodd" clip-rule="evenodd" d="M188.553 156.291C187.307 156.291 186.297 157.302 186.297 158.549C186.297 159.796 187.307 160.808 188.553 160.808C189.8 160.808 190.809 159.797 190.809 158.549C190.809 157.302 189.8 156.291 188.553 156.291Z" fill="white"/>
<path fill-rule="evenodd" clip-rule="evenodd" d="M109.71 157.393L119.802 157.444C121.423 157.452 122.749 158.786 122.749 160.409V190.022C122.749 191.645 121.423 192.966 119.802 192.957L109.71 192.906C108.089 192.898 106.763 191.564 106.763 189.941V160.327C106.763 158.705 108.09 157.384 109.71 157.393Z" fill="#D4EF82"/>
<path fill-rule="evenodd" clip-rule="evenodd" d="M111.436 163.059L118.077 163.091C119.144 163.095 120.017 163.973 120.017 165.041V174.758C120.017 175.826 119.144 176.695 118.077 176.69L111.436 176.658C110.369 176.654 109.497 175.776 109.497 174.708V164.991C109.497 163.923 110.369 163.053 111.436 163.059Z" fill="white"/>
<path fill-rule="evenodd" clip-rule="evenodd" d="M101.524 302.468C96.22 295.88 91.5381 289.04 87.5361 282.003L87.5288 281.99C87.3349 281.649 87.1418 281.306 86.9503 280.963L86.9446 280.953C86.7531 280.609 86.5632 280.265 86.375 279.921L86.3701 279.913C74.5792 258.34 69.1597 234.986 71.783 211.414C72.859 201.744 75.2413 192.489 78.7881 183.717L140.711 239.787V338.785C125.448 328.009 112.232 315.753 101.541 302.471L101.524 302.468Z" fill="#ACC857"/>
<path fill-rule="evenodd" clip-rule="evenodd" d="M279.652 78.332C293.897 78.332 305.444 89.8898 305.444 104.147C305.444 107.537 304.79 110.773 303.603 113.739C303.395 114.394 303.157 115.054 302.891 115.719C300.031 122.849 295.191 129.183 290.834 133.976C286.699 138.525 283.037 141.534 279.412 141.534C275.781 141.534 272.117 138.525 267.978 133.976C263.618 129.185 258.795 122.849 255.941 115.719C254.838 112.974 254.224 110.309 254.121 107.811C253.951 106.614 253.861 105.391 253.861 104.148C253.86 89.8906 265.408 78.332 279.652 78.332Z" fill="white"/>
<path fill-rule="evenodd" clip-rule="evenodd" d="M284.366 75.9443C298.611 75.9443 310.158 87.502 310.158 101.759C310.158 105.149 309.504 108.386 308.317 111.352C308.108 112.006 307.871 112.667 307.604 113.332C304.743 120.462 299.904 126.796 295.547 131.588C291.412 136.137 287.75 139.147 284.126 139.147C280.495 139.147 276.83 136.138 272.69 131.588C268.331 126.796 263.507 120.462 260.654 113.332C259.551 110.586 258.937 107.921 258.833 105.422C258.663 104.226 258.574 103.003 258.574 101.759C258.575 87.502 270.121 75.9443 284.366 75.9443Z" fill="#ACC857"/>
<path fill-rule="evenodd" clip-rule="evenodd" d="M297.318 79.4317C304.997 83.9034 310.158 92.2271 310.158 101.759C310.158 105.148 309.504 108.386 308.317 111.351C308.108 112.005 307.871 112.666 307.604 113.331C304.743 120.461 299.904 126.795 295.547 131.587C291.412 136.136 287.75 139.146 284.126 139.146C281.042 139.146 277.934 136.975 274.531 133.533L297.318 79.4317Z" fill="#CAEB66"/>
<path fill-rule="evenodd" clip-rule="evenodd" d="M284.366 91.4474C290.056 91.4474 294.669 96.0645 294.669 101.759C294.669 107.454 290.056 112.071 284.366 112.071C278.676 112.071 274.063 107.454 274.063 101.759C274.063 96.0645 278.676 91.4474 284.366 91.4474Z" fill="white"/>
<path fill-rule="evenodd" clip-rule="evenodd" d="M95.8159 205.943C97.003 205.943 97.9662 206.906 97.9662 208.094C97.9662 209.283 97.0039 210.246 95.8159 210.246C94.6288 210.246 93.6664 209.283 93.6664 208.094C93.6664 206.906 94.6288 205.943 95.8159 205.943Z" fill="white"/>
<path fill-rule="evenodd" clip-rule="evenodd" d="M109.896 207.417C110.676 207.417 111.309 208.051 111.309 208.832C111.309 209.612 110.676 210.246 109.896 210.246C109.115 210.246 108.483 209.612 108.483 208.832C108.483 208.051 109.115 207.417 109.896 207.417Z" fill="white"/>
<path fill-rule="evenodd" clip-rule="evenodd" d="M103.514 270.786C104.173 270.786 104.708 271.321 104.708 271.981C104.708 272.641 104.173 273.175 103.514 273.175C102.855 273.175 102.32 272.641 102.32 271.981C102.32 271.32 102.855 270.786 103.514 270.786Z" fill="white"/>
<path fill-rule="evenodd" clip-rule="evenodd" d="M175.466 300.884C175.876 300.884 176.209 301.217 176.209 301.628C176.209 302.039 175.876 302.372 175.466 302.372C175.055 302.372 174.722 302.039 174.722 301.628C174.722 301.217 175.055 300.884 175.466 300.884Z" fill="white"/>
<path fill-rule="evenodd" clip-rule="evenodd" d="M272.274 339.618C272.685 339.618 273.017 339.951 273.017 340.362C273.017 340.773 272.685 341.106 272.274 341.106C271.863 341.106 271.531 340.773 271.531 340.362C271.531 339.95 271.863 339.618 272.274 339.618Z" fill="white"/>
<path fill-rule="evenodd" clip-rule="evenodd" d="M259.97 141.414C261.157 141.414 262.12 142.377 262.12 143.566C262.12 144.754 261.157 145.717 259.97 145.717C258.782 145.717 257.82 144.754 257.82 143.566C257.82 142.377 258.782 141.414 259.97 141.414Z" fill="white"/>
<path fill-rule="evenodd" clip-rule="evenodd" d="M263.227 185.88C263.821 185.88 264.303 186.362 264.303 186.957C264.303 187.551 263.821 188.033 263.227 188.033C262.634 188.033 262.152 187.551 262.152 186.957C262.153 186.362 262.634 185.88 263.227 185.88Z" fill="white"/>
<path fill-rule="evenodd" clip-rule="evenodd" d="M386.705 272.884C387.299 272.884 387.78 273.365 387.78 273.96C387.78 274.554 387.299 275.036 386.705 275.036C386.111 275.036 385.63 274.554 385.63 273.96C385.63 273.365 386.111 272.884 386.705 272.884Z" fill="white"/>
<path fill-rule="evenodd" clip-rule="evenodd" d="M338.942 51.0722C340.129 51.0722 341.091 52.0354 341.091 53.2235C341.091 54.4117 340.129 55.3749 338.942 55.3749C337.755 55.3749 336.792 54.4117 336.792 53.2235C336.792 52.0354 337.754 51.0722 338.942 51.0722Z" fill="white"/>
<path fill-rule="evenodd" clip-rule="evenodd" d="M223.183 100.632C223.643 100.632 224.015 101.005 224.015 101.465C224.015 101.924 223.643 102.297 223.183 102.297C222.724 102.297 222.352 101.924 222.352 101.465C222.352 101.005 222.724 100.632 223.183 100.632Z" fill="white"/>
<path fill-rule="evenodd" clip-rule="evenodd" d="M406.935 208.66C407.394 208.66 407.766 209.032 407.766 209.492C407.766 209.952 407.394 210.325 406.935 210.325C406.475 210.325 406.103 209.952 406.103 209.492C406.103 209.033 406.475 208.66 406.935 208.66Z" fill="white"/>
<path fill-rule="evenodd" clip-rule="evenodd" d="M158.769 196.415C158.401 229.211 158.217 245.609 158.217 245.609C164.302 244.133 169.09 239.439 170.691 233.38C174.249 219.905 163.172 217.848 162.058 209.344C161.382 204.185 164.877 200.347 162.418 197.603C161.502 196.581 160.11 196.127 158.769 196.415Z" fill="#4994DE"/>
<path fill-rule="evenodd" clip-rule="evenodd" d="M137.783 120.298C139.775 119.174 141.8 118.08 143.861 117.021C149.257 114.248 154.682 111.908 160.127 109.811V351.059C153.637 347.387 147.346 343.437 141.301 339.198C140.116 338.368 138.943 337.528 137.783 336.68V120.298Z" fill="white"/>
<path fill-rule="evenodd" clip-rule="evenodd" d="M180.284 239.656C180.589 238.684 180.759 237.734 180.791 236.806C180.899 233.681 180.944 230.864 180.923 228.355C180.982 222.932 180.596 217.78 179.765 212.897C178.328 205.899 175.96 200.971 172.659 198.112C170.969 196.603 169.331 195.593 167.744 195.081C165.629 198.071 164.85 201.805 165.594 205.392C167.614 215.128 177.007 213.51 178.531 224.441C179.883 234.136 170.981 237.178 174.068 243.922C175.33 243.501 176.573 242.949 177.798 242.267C179.087 241.593 179.916 240.723 180.284 239.656Z" fill="#B2CAFF"/>
<path fill-rule="evenodd" clip-rule="evenodd" d="M414.484 173.808C415.078 173.808 415.559 174.289 415.559 174.884C415.559 175.478 415.078 175.96 414.484 175.96C413.89 175.96 413.409 175.478 413.409 174.884C413.409 174.289 413.89 173.808 414.484 173.808Z" fill="white"/>
<path fill-rule="evenodd" clip-rule="evenodd" d="M468.727 194.15C469.32 194.15 469.802 194.631 469.802 195.226C469.802 195.82 469.32 196.302 468.727 196.302C468.133 196.302 467.651 195.82 467.651 195.226C467.651 194.631 468.133 194.15 468.727 194.15Z" fill="white"/>
</svg>
