<svg width="137" height="57" viewBox="0 0 137 57" fill="none" xmlns="http://www.w3.org/2000/svg">
<path d="M8.405 48.5449V44.1289L20.549 30.5609H8.405V26.1449H26.517V30.5609L14.373 44.1289H26.517V48.5449H8.405ZM40.789 32.5449H45.205V48.5449H40.773L40.565 46.8809C40.149 47.4996 39.6157 48.0009 38.965 48.3849C38.3143 48.7689 37.5517 48.9609 36.677 48.9609C35.4823 48.9609 34.3677 48.7369 33.333 48.2889C32.2983 47.8409 31.3863 47.2223 30.597 46.4329C29.8077 45.6436 29.189 44.7316 28.741 43.6969C28.3037 42.6516 28.085 41.5316 28.085 40.3369C28.085 39.1956 28.293 38.1289 28.709 37.1369C29.125 36.1449 29.7117 35.2703 30.469 34.5129C31.2263 33.7556 32.0957 33.1636 33.077 32.7369C34.069 32.3103 35.1357 32.0969 36.277 32.0969C37.2583 32.0969 38.1383 32.3049 38.917 32.7209C39.7063 33.1369 40.3943 33.6649 40.981 34.3049L40.789 32.5449ZM36.565 44.7209C37.2903 44.7209 37.9463 44.5343 38.533 44.1609C39.1197 43.7876 39.5837 43.2863 39.925 42.6569C40.2663 42.0169 40.437 41.3129 40.437 40.5449C40.437 39.7663 40.2663 39.0623 39.925 38.4329C39.5837 37.8036 39.1197 37.3023 38.533 36.9289C37.9463 36.5556 37.2903 36.3689 36.565 36.3689C35.829 36.3689 35.1623 36.5556 34.565 36.9289C33.9677 37.3023 33.493 37.8089 33.141 38.4489C32.789 39.0783 32.613 39.7769 32.613 40.5449C32.613 41.3129 32.789 42.0169 33.141 42.6569C33.5037 43.2863 33.9837 43.7876 34.581 44.1609C35.1783 44.5343 35.8397 44.7209 36.565 44.7209ZM52.836 56.5449H48.42V32.5449H52.836V34.2729C53.348 33.6436 53.956 33.1316 54.66 32.7369C55.364 32.3316 56.1853 32.1289 57.124 32.1289C58.2867 32.1289 59.3747 32.3476 60.388 32.7849C61.412 33.2223 62.308 33.8303 63.076 34.6089C63.844 35.3769 64.4467 36.2676 64.884 37.2809C65.3213 38.2943 65.54 39.3823 65.54 40.5449C65.54 41.7076 65.3213 42.8009 64.884 43.8249C64.4467 44.8489 63.844 45.7503 63.076 46.5289C62.308 47.2969 61.412 47.8996 60.388 48.3369C59.3747 48.7743 58.2867 48.9929 57.124 48.9929C56.1853 48.9929 55.364 48.7903 54.66 48.3849C53.956 47.9796 53.348 47.4676 52.836 46.8489V56.5449ZM57.06 36.3689C56.3347 36.3689 55.6787 36.5609 55.092 36.9449C54.516 37.3183 54.0573 37.8196 53.716 38.4489C53.3853 39.0783 53.22 39.7769 53.22 40.5449C53.22 41.3129 53.3853 42.0169 53.716 42.6569C54.0573 43.2863 54.516 43.7876 55.092 44.1609C55.6787 44.5343 56.3347 44.7209 57.06 44.7209C57.7853 44.7209 58.4467 44.5343 59.044 44.1609C59.652 43.7876 60.132 43.2863 60.484 42.6569C60.8467 42.0276 61.028 41.3236 61.028 40.5449C61.028 39.7876 60.852 39.0943 60.5 38.4649C60.148 37.8249 59.668 37.3183 59.06 36.9449C58.4627 36.5609 57.796 36.3689 57.06 36.3689ZM76.564 48.9609C75.3053 48.9609 74.1 48.7636 72.948 48.3689C71.8067 47.9743 70.804 47.4036 69.94 46.6569C69.0867 45.9103 68.4733 45.0249 68.1 44.0009L72.244 42.4649C72.372 42.8276 72.6387 43.1689 73.044 43.4889C73.4493 43.7983 73.956 44.0543 74.564 44.2569C75.172 44.4489 75.8387 44.5449 76.564 44.5449C77.2573 44.5449 77.908 44.4436 78.516 44.2409C79.1347 44.0276 79.6307 43.7343 80.004 43.3609C80.388 42.9876 80.58 42.5503 80.58 42.0489C80.58 41.5476 80.3827 41.1316 79.988 40.8009C79.5933 40.4703 79.0867 40.2089 78.468 40.0169C77.8493 39.8143 77.2147 39.6596 76.564 39.5529C74.9533 39.3183 73.508 38.9396 72.228 38.4169C70.9587 37.8836 69.956 37.1529 69.22 36.2249C68.484 35.2863 68.116 34.0969 68.116 32.6569C68.116 31.2703 68.5053 30.0596 69.284 29.0249C70.0733 27.9903 71.108 27.1849 72.388 26.6089C73.6787 26.0329 75.0707 25.7449 76.564 25.7449C77.8013 25.7449 78.996 25.9423 80.148 26.3369C81.3 26.7316 82.3027 27.3023 83.156 28.0489C84.02 28.7956 84.6387 29.6916 85.012 30.7369L80.868 32.2409C80.74 31.8783 80.4733 31.5423 80.068 31.2329C79.6627 30.9236 79.156 30.6729 78.548 30.4809C77.94 30.2889 77.2787 30.1929 76.564 30.1929C75.8813 30.1823 75.2307 30.2836 74.612 30.4969C74.004 30.7103 73.5027 31.0036 73.108 31.3769C72.724 31.7503 72.532 32.1769 72.532 32.6569C72.532 33.2863 72.7133 33.7609 73.076 34.0809C73.4493 34.4009 73.94 34.6303 74.548 34.7689C75.156 34.9076 75.828 35.0303 76.564 35.1369C78.0787 35.3609 79.476 35.7609 80.756 36.3369C82.036 36.9023 83.06 37.6596 83.828 38.6089C84.6067 39.5476 84.996 40.6943 84.996 42.0489C84.996 43.4356 84.6067 44.6463 83.828 45.6809C83.0493 46.7156 82.02 47.5209 80.74 48.0969C79.46 48.6729 78.068 48.9609 76.564 48.9609ZM103.44 38.3689V48.5449H99.0243V39.5849C99.0243 39.0196 98.8856 38.5129 98.6083 38.0649C98.3416 37.6063 97.9789 37.2436 97.5203 36.9769C97.0723 36.7103 96.5709 36.5769 96.0163 36.5769C95.4616 36.5769 94.9549 36.7103 94.4963 36.9769C94.0376 37.2436 93.6749 37.6063 93.4083 38.0649C93.1416 38.5129 93.0083 39.0196 93.0083 39.5849V48.5449H88.5923L88.5763 24.5449H92.9923L93.0083 33.7289C93.5416 33.2169 94.1656 32.8169 94.8802 32.5289C95.6056 32.2409 96.3683 32.0969 97.1683 32.0969C98.3309 32.0969 99.3816 32.3796 100.32 32.9449C101.27 33.5103 102.027 34.2676 102.592 35.2169C103.158 36.1556 103.44 37.2063 103.44 38.3689ZM106.639 32.5449H111.055V48.5449H106.639V32.5449ZM108.879 30.7049C108.239 30.7049 107.7 30.4916 107.263 30.0649C106.825 29.6383 106.607 29.1103 106.607 28.4809C106.607 27.8516 106.825 27.3236 107.263 26.8969C107.7 26.4703 108.233 26.2569 108.863 26.2569C109.492 26.2569 110.02 26.4703 110.447 26.8969C110.884 27.3236 111.103 27.8516 111.103 28.4809C111.103 29.1103 110.889 29.6383 110.463 30.0649C110.047 30.4916 109.519 30.7049 108.879 30.7049ZM119.785 29.4409V32.5449H124.025V36.9609H119.785V48.5449H115.369V36.9609H113.769V32.5449H115.369V29.4409C115.369 28.4703 115.609 27.5903 116.089 26.8009C116.569 26.0009 117.209 25.3609 118.009 24.8809C118.819 24.4009 119.71 24.1609 120.681 24.1609C121.395 24.1609 122.099 24.3103 122.793 24.6089C123.486 24.8969 124.105 25.3503 124.649 25.9689L121.481 29.0889C121.406 28.9183 121.294 28.7903 121.145 28.7049C120.995 28.6196 120.841 28.5769 120.681 28.5769C120.435 28.5769 120.222 28.6623 120.041 28.8329C119.87 28.9929 119.785 29.1956 119.785 29.4409ZM135.905 36.9609H133.025V48.5449H128.609V36.9609H126.401V32.5449H128.609V27.5209H133.025V32.5449H135.905V36.9609Z" fill="white"/>
<path d="M0.779612 12.5991L21.9235 0.452617C22.4102 0.173031 23.0099 0.177731 23.4921 0.46491L34.8033 7.20078C35.8153 7.80345 35.8146 9.26919 34.802 9.87088L15.5787 21.2934C15.1075 21.5734 14.8188 22.0809 14.8188 22.6289V45.2615C14.8188 46.4678 13.5037 47.2138 12.4683 46.5948L0.756314 39.5931C0.287213 39.3126 0 38.8063 0 38.2598V13.9461C0 13.3899 0.297348 12.8762 0.779612 12.5991Z" fill="#CAEB66"/>
</svg>
