<svg width="153" height="53" viewBox="0 0 153 53" fill="none" xmlns="http://www.w3.org/2000/svg">
<path d="M24.405 45V40.584L36.549 27.016H24.405V22.6H42.517V27.016L30.373 40.584H42.517V45H24.405ZM56.789 29H61.205V45H56.773L56.565 43.336C56.149 43.9547 55.6157 44.456 54.965 44.84C54.3143 45.224 53.5517 45.416 52.677 45.416C51.4823 45.416 50.3677 45.192 49.333 44.744C48.2983 44.296 47.3863 43.6773 46.597 42.888C45.8077 42.0987 45.189 41.1867 44.741 40.152C44.3037 39.1067 44.085 37.9867 44.085 36.792C44.085 35.6507 44.293 34.584 44.709 33.592C45.125 32.6 45.7117 31.7253 46.469 30.968C47.2263 30.2107 48.0957 29.6187 49.077 29.192C50.069 28.7653 51.1357 28.552 52.277 28.552C53.2583 28.552 54.1383 28.76 54.917 29.176C55.7063 29.592 56.3943 30.12 56.981 30.76L56.789 29ZM52.565 41.176C53.2903 41.176 53.9463 40.9893 54.533 40.616C55.1197 40.2427 55.5837 39.7413 55.925 39.112C56.2663 38.472 56.437 37.768 56.437 37C56.437 36.2213 56.2663 35.5173 55.925 34.888C55.5837 34.2587 55.1197 33.7573 54.533 33.384C53.9463 33.0107 53.2903 32.824 52.565 32.824C51.829 32.824 51.1623 33.0107 50.565 33.384C49.9677 33.7573 49.493 34.264 49.141 34.904C48.789 35.5333 48.613 36.232 48.613 37C48.613 37.768 48.789 38.472 49.141 39.112C49.5037 39.7413 49.9837 40.2427 50.581 40.616C51.1783 40.9893 51.8397 41.176 52.565 41.176ZM68.836 53H64.42V29H68.836V30.728C69.348 30.0987 69.956 29.5867 70.66 29.192C71.364 28.7867 72.1853 28.584 73.124 28.584C74.2867 28.584 75.3747 28.8027 76.388 29.24C77.412 29.6773 78.308 30.2853 79.076 31.064C79.844 31.832 80.4467 32.7227 80.884 33.736C81.3213 34.7493 81.54 35.8373 81.54 37C81.54 38.1627 81.3213 39.256 80.884 40.28C80.4467 41.304 79.844 42.2053 79.076 42.984C78.308 43.752 77.412 44.3547 76.388 44.792C75.3747 45.2293 74.2867 45.448 73.124 45.448C72.1853 45.448 71.364 45.2453 70.66 44.84C69.956 44.4347 69.348 43.9227 68.836 43.304V53ZM73.06 32.824C72.3347 32.824 71.6787 33.016 71.092 33.4C70.516 33.7733 70.0573 34.2747 69.716 34.904C69.3853 35.5333 69.22 36.232 69.22 37C69.22 37.768 69.3853 38.472 69.716 39.112C70.0573 39.7413 70.516 40.2427 71.092 40.616C71.6787 40.9893 72.3347 41.176 73.06 41.176C73.7853 41.176 74.4467 40.9893 75.044 40.616C75.652 40.2427 76.132 39.7413 76.484 39.112C76.8467 38.4827 77.028 37.7787 77.028 37C77.028 36.2427 76.852 35.5493 76.5 34.92C76.148 34.28 75.668 33.7733 75.06 33.4C74.4627 33.016 73.796 32.824 73.06 32.824ZM92.564 45.416C91.3053 45.416 90.1 45.2187 88.948 44.824C87.8067 44.4293 86.804 43.8587 85.94 43.112C85.0867 42.3653 84.4733 41.48 84.1 40.456L88.244 38.92C88.372 39.2827 88.6387 39.624 89.044 39.944C89.4493 40.2533 89.956 40.5093 90.564 40.712C91.172 40.904 91.8387 41 92.564 41C93.2573 41 93.908 40.8987 94.516 40.696C95.1347 40.4827 95.6307 40.1893 96.004 39.816C96.388 39.4427 96.58 39.0053 96.58 38.504C96.58 38.0027 96.3827 37.5867 95.988 37.256C95.5933 36.9253 95.0867 36.664 94.468 36.472C93.8493 36.2693 93.2147 36.1147 92.564 36.008C90.9533 35.7733 89.508 35.3947 88.228 34.872C86.9587 34.3387 85.956 33.608 85.22 32.68C84.484 31.7413 84.116 30.552 84.116 29.112C84.116 27.7253 84.5053 26.5147 85.284 25.48C86.0733 24.4453 87.108 23.64 88.388 23.064C89.6787 22.488 91.0707 22.2 92.564 22.2C93.8013 22.2 94.996 22.3973 96.148 22.792C97.3 23.1867 98.3027 23.7573 99.156 24.504C100.02 25.2507 100.639 26.1467 101.012 27.192L96.868 28.696C96.74 28.3333 96.4733 27.9973 96.068 27.688C95.6627 27.3787 95.156 27.128 94.548 26.936C93.94 26.744 93.2787 26.648 92.564 26.648C91.8813 26.6373 91.2307 26.7387 90.612 26.952C90.004 27.1653 89.5027 27.4587 89.108 27.832C88.724 28.2053 88.532 28.632 88.532 29.112C88.532 29.7413 88.7133 30.216 89.076 30.536C89.4493 30.856 89.94 31.0853 90.548 31.224C91.156 31.3627 91.828 31.4853 92.564 31.592C94.0787 31.816 95.476 32.216 96.756 32.792C98.036 33.3573 99.06 34.1147 99.828 35.064C100.607 36.0027 100.996 37.1493 100.996 38.504C100.996 39.8907 100.607 41.1013 99.828 42.136C99.0493 43.1707 98.02 43.976 96.74 44.552C95.46 45.128 94.068 45.416 92.564 45.416ZM119.44 34.824V45H115.024V36.04C115.024 35.4747 114.886 34.968 114.608 34.52C114.342 34.0613 113.979 33.6987 113.52 33.432C113.072 33.1653 112.571 33.032 112.016 33.032C111.462 33.032 110.955 33.1653 110.496 33.432C110.038 33.6987 109.675 34.0613 109.408 34.52C109.142 34.968 109.008 35.4747 109.008 36.04V45H104.592L104.576 21H108.992L109.008 30.184C109.542 29.672 110.166 29.272 110.88 28.984C111.606 28.696 112.368 28.552 113.168 28.552C114.331 28.552 115.382 28.8347 116.32 29.4C117.27 29.9653 118.027 30.7227 118.592 31.672C119.158 32.6107 119.44 33.6613 119.44 34.824ZM122.639 29H127.055V45H122.639V29ZM124.879 27.16C124.239 27.16 123.7 26.9467 123.263 26.52C122.825 26.0933 122.607 25.5653 122.607 24.936C122.607 24.3067 122.825 23.7787 123.263 23.352C123.7 22.9253 124.233 22.712 124.863 22.712C125.492 22.712 126.02 22.9253 126.447 23.352C126.884 23.7787 127.103 24.3067 127.103 24.936C127.103 25.5653 126.889 26.0933 126.463 26.52C126.047 26.9467 125.519 27.16 124.879 27.16ZM135.785 25.896V29H140.025V33.416H135.785V45H131.369V33.416H129.769V29H131.369V25.896C131.369 24.9253 131.609 24.0453 132.089 23.256C132.569 22.456 133.209 21.816 134.009 21.336C134.819 20.856 135.71 20.616 136.681 20.616C137.395 20.616 138.099 20.7653 138.793 21.064C139.486 21.352 140.105 21.8053 140.649 22.424L137.481 25.544C137.406 25.3733 137.294 25.2453 137.145 25.16C136.995 25.0747 136.841 25.032 136.681 25.032C136.435 25.032 136.222 25.1173 136.041 25.288C135.87 25.448 135.785 25.6507 135.785 25.896ZM151.905 33.416H149.025V45H144.609V33.416H142.401V29H144.609V23.976H149.025V29H151.905V33.416Z" fill="#303030"/>
<path d="M0.779612 12.5991L21.9235 0.452617C22.4102 0.173031 23.0099 0.177731 23.4921 0.46491L34.8033 7.20078C35.8153 7.80345 35.8146 9.26919 34.802 9.87088L15.5787 21.2934C15.1075 21.5734 14.8188 22.0809 14.8188 22.6289V45.2615C14.8188 46.4678 13.5037 47.2138 12.4683 46.5948L0.756314 39.5931C0.287213 39.3126 0 38.8063 0 38.2598V13.9461C0 13.3899 0.297348 12.8762 0.779612 12.5991Z" fill="#CAEB66"/>
</svg>
