<svg width="87" height="20" viewBox="0 0 87 20" fill="none" xmlns="http://www.w3.org/2000/svg">
<path d="M-0.000175714 19.6001L3.79382 9.63211e-05H5.22182L10.7098 14.4201L16.1698 9.63211e-05H17.5978L21.4058 19.6001H19.4038L16.5058 4.6061L11.3258 18.3121H10.0658L4.88582 4.6061L1.98782 19.6001H-0.000175714ZM24.5272 5.6001H26.4872V19.6001H24.5272V5.6001ZM25.5212 3.1501C25.2038 3.1501 24.9332 3.04743 24.7092 2.8421C24.4945 2.62743 24.3872 2.36143 24.3872 2.0441C24.3872 1.72676 24.4945 1.46543 24.7092 1.2601C24.9332 1.04543 25.2038 0.938097 25.5212 0.938097C25.8292 0.938097 26.0905 1.04543 26.3052 1.2601C26.5292 1.46543 26.6412 1.72676 26.6412 2.0441C26.6412 2.36143 26.5338 2.62743 26.3192 2.8421C26.1045 3.04743 25.8385 3.1501 25.5212 3.1501ZM34.0758 19.8661C33.3105 19.8474 32.5638 19.7074 31.8358 19.4461C31.1078 19.1848 30.4732 18.8301 29.9318 18.3821C29.3905 17.9341 29.0032 17.4254 28.7698 16.8561L30.4638 16.1281C30.6132 16.4921 30.8885 16.8281 31.2898 17.1361C31.7005 17.4348 32.1672 17.6774 32.6898 17.8641C33.2125 18.0414 33.7305 18.1301 34.2438 18.1301C34.8132 18.1301 35.3452 18.0368 35.8398 17.8501C36.3345 17.6634 36.7358 17.3974 37.0438 17.0521C37.3612 16.6974 37.5198 16.2821 37.5198 15.8061C37.5198 15.2928 37.3518 14.8914 37.0158 14.6021C36.6798 14.3034 36.2552 14.0701 35.7418 13.9021C35.2285 13.7248 34.7012 13.5568 34.1598 13.3981C33.1705 13.1274 32.2978 12.8288 31.5418 12.5021C30.7858 12.1754 30.1932 11.7601 29.7638 11.2561C29.3438 10.7428 29.1338 10.0848 29.1338 9.2821C29.1338 8.43276 29.3718 7.7001 29.8478 7.0841C30.3332 6.45876 30.9632 5.9781 31.7378 5.6421C32.5218 5.29676 33.3572 5.1241 34.2438 5.1241C35.3825 5.1241 36.4185 5.37143 37.3518 5.8661C38.2945 6.36076 38.9758 7.01876 39.3958 7.8401L37.8138 8.7781C37.6458 8.39543 37.3798 8.0641 37.0158 7.7841C36.6518 7.5041 36.2365 7.28476 35.7698 7.1261C35.3125 6.96743 34.8458 6.88343 34.3698 6.8741C33.7725 6.86476 33.2172 6.95343 32.7038 7.1401C32.1905 7.31743 31.7752 7.58343 31.4578 7.9381C31.1498 8.29276 30.9958 8.72676 30.9958 9.2401C30.9958 9.75343 31.1498 10.1454 31.4578 10.4161C31.7658 10.6774 32.1812 10.8921 32.7038 11.0601C33.2358 11.2188 33.8332 11.4054 34.4958 11.6201C35.3452 11.8908 36.1432 12.1988 36.8898 12.5441C37.6365 12.8894 38.2385 13.3188 38.6958 13.8321C39.1532 14.3454 39.3772 14.9941 39.3678 15.7781C39.3678 16.6181 39.1158 17.3508 38.6118 17.9761C38.1078 18.6014 37.4545 19.0821 36.6518 19.4181C35.8492 19.7448 34.9905 19.8941 34.0758 19.8661ZM46.1071 19.8661C45.3417 19.8474 44.5951 19.7074 43.8671 19.4461C43.1391 19.1848 42.5044 18.8301 41.9631 18.3821C41.4217 17.9341 41.0344 17.4254 40.8011 16.8561L42.4951 16.1281C42.6444 16.4921 42.9197 16.8281 43.3211 17.1361C43.7317 17.4348 44.1984 17.6774 44.7211 17.8641C45.2437 18.0414 45.7617 18.1301 46.2751 18.1301C46.8444 18.1301 47.3764 18.0368 47.8711 17.8501C48.3657 17.6634 48.7671 17.3974 49.0751 17.0521C49.3924 16.6974 49.5511 16.2821 49.5511 15.8061C49.5511 15.2928 49.3831 14.8914 49.0471 14.6021C48.7111 14.3034 48.2864 14.0701 47.7731 13.9021C47.2597 13.7248 46.7324 13.5568 46.1911 13.3981C45.2017 13.1274 44.3291 12.8288 43.5731 12.5021C42.8171 12.1754 42.2244 11.7601 41.7951 11.2561C41.3751 10.7428 41.1651 10.0848 41.1651 9.2821C41.1651 8.43276 41.4031 7.7001 41.8791 7.0841C42.3644 6.45876 42.9944 5.9781 43.7691 5.6421C44.5531 5.29676 45.3884 5.1241 46.2751 5.1241C47.4137 5.1241 48.4497 5.37143 49.3831 5.8661C50.3257 6.36076 51.0071 7.01876 51.4271 7.8401L49.8451 8.7781C49.6771 8.39543 49.4111 8.0641 49.0471 7.7841C48.6831 7.5041 48.2677 7.28476 47.8011 7.1261C47.3437 6.96743 46.8771 6.88343 46.4011 6.8741C45.8037 6.86476 45.2484 6.95343 44.7351 7.1401C44.2217 7.31743 43.8064 7.58343 43.4891 7.9381C43.1811 8.29276 43.0271 8.72676 43.0271 9.2401C43.0271 9.75343 43.1811 10.1454 43.4891 10.4161C43.7971 10.6774 44.2124 10.8921 44.7351 11.0601C45.2671 11.2188 45.8644 11.4054 46.5271 11.6201C47.3764 11.8908 48.1744 12.1988 48.9211 12.5441C49.6677 12.8894 50.2697 13.3188 50.7271 13.8321C51.1844 14.3454 51.4084 14.9941 51.3991 15.7781C51.3991 16.6181 51.1471 17.3508 50.6431 17.9761C50.1391 18.6014 49.4857 19.0821 48.6831 19.4181C47.8804 19.7448 47.0217 19.8941 46.1071 19.8661ZM53.6756 5.6001H55.6356V19.6001H53.6756V5.6001ZM54.6696 3.1501C54.3523 3.1501 54.0816 3.04743 53.8576 2.8421C53.6429 2.62743 53.5356 2.36143 53.5356 2.0441C53.5356 1.72676 53.6429 1.46543 53.8576 1.2601C54.0816 1.04543 54.3523 0.938097 54.6696 0.938097C54.9776 0.938097 55.2389 1.04543 55.4536 1.2601C55.6776 1.46543 55.7896 1.72676 55.7896 2.0441C55.7896 2.36143 55.6823 2.62743 55.4676 2.8421C55.2529 3.04743 54.9869 3.1501 54.6696 3.1501ZM65.0309 19.9641C63.7429 19.9641 62.5669 19.6328 61.5029 18.9701C60.4483 18.3074 59.6036 17.4208 58.9689 16.3101C58.3436 15.1901 58.0309 13.9534 58.0309 12.6001C58.0309 11.5734 58.2129 10.6168 58.5769 9.7301C58.9409 8.8341 59.4403 8.0501 60.0749 7.3781C60.7189 6.69676 61.4656 6.16476 62.3149 5.7821C63.1643 5.39943 64.0696 5.2081 65.0309 5.2081C66.3189 5.2081 67.4903 5.53943 68.5449 6.2021C69.6089 6.86476 70.4536 7.7561 71.0789 8.8761C71.7136 9.9961 72.0309 11.2374 72.0309 12.6001C72.0309 13.6174 71.8489 14.5694 71.4849 15.4561C71.1209 16.3428 70.6169 17.1268 69.9729 17.8081C69.3383 18.4801 68.5963 19.0074 67.7469 19.3901C66.9069 19.7728 66.0016 19.9641 65.0309 19.9641ZM65.0309 18.0041C65.9829 18.0041 66.8369 17.7568 67.5929 17.2621C68.3583 16.7581 68.9603 16.0954 69.3989 15.2741C69.8469 14.4528 70.0709 13.5614 70.0709 12.6001C70.0709 11.6201 69.8469 10.7194 69.3989 9.8981C68.9509 9.06743 68.3443 8.40476 67.5789 7.9101C66.8229 7.41543 65.9736 7.1681 65.0309 7.1681C64.0789 7.1681 63.2203 7.4201 62.4549 7.9241C61.6989 8.41876 61.0969 9.07676 60.6489 9.8981C60.2103 10.7194 59.9909 11.6201 59.9909 12.6001C59.9909 13.6081 60.2196 14.5228 60.6769 15.3441C61.1343 16.1561 61.7456 16.8048 62.5109 17.2901C63.2763 17.7661 64.1163 18.0041 65.0309 18.0041ZM86.6102 10.9341V19.6001H84.6502V11.3261C84.6502 10.5608 84.4635 9.86543 84.0902 9.2401C83.7168 8.61476 83.2175 8.11543 82.5922 7.7421C81.9668 7.36876 81.2715 7.1821 80.5062 7.1821C79.7502 7.1821 79.0548 7.36876 78.4202 7.7421C77.7948 8.11543 77.2955 8.61476 76.9222 9.2401C76.5488 9.86543 76.3622 10.5608 76.3622 11.3261V19.6001H74.4022V5.6001H76.3622V7.5321C76.8568 6.82276 77.5008 6.2581 78.2942 5.8381C79.0875 5.4181 79.9508 5.2081 80.8842 5.2081C81.9388 5.2081 82.9002 5.46476 83.7682 5.9781C84.6362 6.49143 85.3268 7.1821 85.8402 8.0501C86.3535 8.9181 86.6102 9.87943 86.6102 10.9341Z" fill="black" fill-opacity="0.5"/>
</svg>
