<svg width="176" height="24" viewBox="0 0 176 24" fill="none" xmlns="http://www.w3.org/2000/svg">
<path d="M23.584 21.031C23.7181 21.031 23.8298 21.0534 23.8634 21.1878C23.8969 21.3111 23.8298 21.4231 23.6958 21.468C16.0858 24.0002 9.20229 23.2719 7.39201 19.3839C5.29118 14.8685 9.80572 7.78728 18.8013 3.5856C24.6791 0.8405 31.6297 0.000163853 35.5855 1.00857C35.7196 1.03098 35.8202 1.10941 35.8202 1.23266C35.8202 1.36711 35.7308 1.45675 35.5855 1.46795C32.9595 1.71445 30.0318 2.45395 27.0928 3.69764C18.8571 7.21585 13.5939 13.4231 15.3483 17.5688C16.3652 19.9665 19.5165 21.1542 23.584 21.031Z" fill="#4B5563"/>
<path d="M40.2341 13.6245C40.2341 13.815 40.0889 13.9382 39.8877 13.9718C32.7807 15.0139 29.8194 15.955 28.9701 22.3304C28.9254 22.5433 28.8137 22.6777 28.6237 22.6777C28.4338 22.6777 28.322 22.5433 28.2773 22.3304C27.428 15.955 24.4779 15.0139 17.3597 13.9718C17.1474 13.9382 17.0133 13.815 17.0133 13.6245C17.0133 13.4228 17.1586 13.3108 17.3597 13.2772C24.4668 12.2352 27.428 11.294 28.2773 4.91863C28.322 4.70574 28.4338 4.57129 28.6237 4.57129C28.8137 4.57129 28.9254 4.70574 28.9701 4.91863C29.8194 11.294 32.7807 12.2352 39.8877 13.2772C40.0889 13.3108 40.2341 13.434 40.2341 13.6245ZM72.2941 5.15392H69.3663C66.2933 5.15392 64.6506 7.03627 64.6506 9.88221V17.1427C64.6506 19.9775 66.2933 21.871 69.3663 21.871H72.2941C75.3559 21.871 77.0098 19.9775 77.0098 17.1427V9.88221C77.0098 7.04748 75.3671 5.15392 72.2941 5.15392ZM73.188 16.885C73.188 18.1959 72.864 19.2716 71.6124 19.2716H70.048C68.7964 19.2716 68.4724 18.1959 68.4724 16.885V10.1399C68.4724 8.8402 68.7964 7.75336 70.048 7.75336H71.6124C72.864 7.75336 73.188 8.82899 73.188 10.1399V16.885ZM56.1132 5.23235H42.6478V21.8038H46.4696V7.83179H49.8219V21.8038H53.6437V7.83179H55.4316C56.4708 7.83179 56.996 8.57129 56.996 9.68053V21.8038H60.8177V9.96064C60.8289 7.11471 59.1863 5.23235 56.1132 5.23235ZM119.518 11.7197C122.736 11.7197 124.692 13.6133 124.692 16.7169C124.692 20.0783 122.814 21.7702 119.518 21.7702H112.042V19.1595H118.68C120.188 19.1595 120.87 18.3864 120.87 17.0643C120.87 15.7422 120.066 14.969 118.557 14.969H116.948C113.998 14.969 111.774 13.0979 111.774 10.0839C111.774 6.95784 113.495 5.19874 116.948 5.19874H123.552V7.79818H117.808C116.3 7.79818 115.596 8.51527 115.596 9.75896C115.596 11.0027 116.478 11.7197 117.931 11.7197H119.518ZM166.384 14.5433C168.317 13.9382 169.346 12.28 169.346 9.99426C169.346 7.0923 167.703 5.20994 164.63 5.20994H156.428V21.7814H160.249V7.79818H163.948C164.976 7.79818 165.513 8.86261 165.513 9.99426C165.513 11.1259 164.976 12.1903 163.948 12.1903H161.434L166.306 21.7702H170.698C170.709 21.7814 168.116 17.4564 166.384 14.5433ZM125.809 5.20994V7.80938H130.089V21.7814H133.922V7.80938H138.202V5.20994H137.688H125.809ZM88.0056 5.13151H85.0778C82.016 5.13151 80.3621 7.02507 80.3621 9.8598V17.1203C80.3621 19.955 82.016 21.8374 85.0778 21.8374H88.0056C91.0786 21.8374 92.7212 19.955 92.7212 17.1203V9.8598C92.7212 7.02507 91.0674 5.13151 88.0056 5.13151ZM88.8884 16.8626C88.8884 18.1735 88.5643 19.2492 87.3239 19.2492H85.7595C84.5079 19.2492 84.195 18.1735 84.195 16.8626V10.1175C84.195 8.80658 84.5191 7.73095 85.7595 7.73095H87.3239C88.5755 7.73095 88.8884 8.80658 88.8884 10.1175V16.8626ZM148.27 5.20994H143.744L137.844 21.7814H141.51C141.51 21.7814 142.828 17.7926 143.029 17.2099H148.997C149.187 17.8038 150.516 21.7814 150.516 21.7814H154.17L148.27 5.20994ZM143.934 14.6329C144.236 13.7029 145.03 11.2828 145.03 11.2828C145.32 10.3752 145.599 9.52367 145.868 8.64972C145.89 8.57129 145.924 8.51527 146.002 8.51527C146.08 8.51527 146.114 8.58249 146.136 8.64972C146.404 9.52367 146.672 10.3864 146.974 11.2828C146.974 11.2828 147.767 13.7029 148.069 14.6329H143.934ZM104.186 5.19874H96.543V21.7814H100.365V7.80938H103.505C104.544 7.80938 105.08 8.54888 105.08 9.65812V21.7814H108.902V9.92703C108.902 7.0923 107.248 5.19874 104.186 5.19874Z" fill="#4B5563"/>
</svg>
