<svg width="462" height="439" viewBox="0 0 462 439" fill="none" xmlns="http://www.w3.org/2000/svg">
<path d="M202.277 193.699L16.23 427.655H449.938L256.073 193.699H202.277Z" fill="url(#paint0_linear_2075_1975)"/>
<path d="M210.474 193.699L31.5122 427.41H438.509L250.913 193.699H210.474Z" fill="#F2F2F2"/>
<path d="M212.871 193.697L42.751 427.41H429.553L249.501 193.659L212.871 193.697Z" fill="url(#paint1_linear_2075_1975)"/>
<path opacity="0.69" d="M230.286 427.655H222.278L229.336 193.688H230.286V427.655Z" fill="#FDF14D"/>
<path opacity="0.69" d="M238.733 427.655H232.347V193.688H233.26L238.733 427.655Z" fill="#FDF14D"/>
<path d="M41.1607 68.9901H98.7867C102.102 68.9901 104.789 66.3045 104.789 62.9918V62.2034C104.789 58.8906 102.102 56.2051 98.7867 56.2051H41.1607C37.8459 56.2051 35.1587 58.8906 35.1587 62.2034V62.9918C35.1588 66.3045 37.8459 68.9901 41.1607 68.9901Z" fill="#F6FBFC"/>
<path d="M83.7928 64.4796C89.8109 58.4651 89.8109 48.7136 83.7928 42.6991C77.7747 36.6846 68.0174 36.6846 61.9993 42.6991C55.9812 48.7136 55.9812 58.4651 61.9993 64.4796C68.0174 70.4941 77.7747 70.4941 83.7928 64.4796Z" fill="#F6FBFC"/>
<path d="M61.0043 65.7301C65.3535 61.3835 65.3535 54.3362 61.0043 49.9896C56.6551 45.643 49.6036 45.643 45.2544 49.9896C40.9051 54.3362 40.9051 61.3835 45.2544 65.7301C49.6036 70.0767 56.6551 70.0767 61.0043 65.7301Z" fill="#F6FBFC"/>
<path d="M104.727 67.1183C107.225 64.6219 107.225 60.5744 104.727 58.078C102.229 55.5816 98.1795 55.5816 95.6816 58.078C93.1837 60.5744 93.1837 64.6219 95.6816 67.1183C98.1795 69.6147 102.229 69.6147 104.727 67.1183Z" fill="#F6FBFC"/>
<path d="M125.641 116.759H167.287C169.682 116.759 171.624 114.818 171.624 112.424V111.854C171.624 109.46 169.682 107.52 167.287 107.52H125.641C123.246 107.52 121.304 109.46 121.304 111.854V112.424C121.304 114.818 123.246 116.759 125.641 116.759Z" fill="#F6FBFC"/>
<path d="M148.577 116.759C154.728 116.759 159.714 111.776 159.714 105.629C159.714 99.4817 154.728 94.4985 148.577 94.4985C142.426 94.4985 137.44 99.4817 137.44 105.629C137.44 111.776 142.426 116.759 148.577 116.759Z" fill="#F6FBFC"/>
<path d="M134.292 116.759C138.737 116.759 142.34 113.158 142.34 108.716C142.34 104.273 138.737 100.672 134.292 100.672C129.847 100.672 126.243 104.273 126.243 108.716C126.243 113.158 129.847 116.759 134.292 116.759Z" fill="#F6FBFC"/>
<path d="M168.312 116.759C170.865 116.759 172.935 114.691 172.935 112.139C172.935 109.588 170.865 107.52 168.312 107.52C165.76 107.52 163.69 109.588 163.69 112.139C163.69 114.691 165.76 116.759 168.312 116.759Z" fill="#F6FBFC"/>
<path d="M306.099 116.759H347.745C350.14 116.759 352.082 114.818 352.082 112.424V111.854C352.082 109.46 350.14 107.52 347.745 107.52H306.099C303.704 107.52 301.762 109.46 301.762 111.854V112.424C301.762 114.818 303.704 116.759 306.099 116.759Z" fill="#F6FBFC"/>
<path d="M330.226 115.568C336.377 115.568 341.363 110.585 341.363 104.438C341.363 98.2908 336.377 93.3076 330.226 93.3076C324.076 93.3076 319.089 98.2908 319.089 104.438C319.089 110.585 324.076 115.568 330.226 115.568Z" fill="#F6FBFC"/>
<path d="M319.09 116.759C323.535 116.759 327.138 113.158 327.138 108.716C327.138 104.273 323.535 100.672 319.09 100.672C314.644 100.672 311.041 104.273 311.041 108.716C311.041 113.158 314.644 116.759 319.09 116.759Z" fill="#F6FBFC"/>
<path d="M340.088 116.759C344.533 116.759 348.136 113.158 348.136 108.716C348.136 104.273 344.533 100.672 340.088 100.672C335.643 100.672 332.039 104.273 332.039 108.716C332.039 113.158 335.643 116.759 340.088 116.759Z" fill="#F6FBFC"/>
<path d="M348.77 116.759C351.323 116.759 353.393 114.691 353.393 112.139C353.393 109.588 351.323 107.52 348.77 107.52C346.217 107.52 344.147 109.588 344.147 112.139C344.147 114.691 346.217 116.759 348.77 116.759Z" fill="#F6FBFC"/>
<path d="M427.866 68.3791H373.412C369.854 68.3791 366.969 65.4961 366.969 61.9396V61.0933C366.969 57.5369 369.853 54.6538 373.412 54.6538H427.866C431.425 54.6538 434.31 57.5369 434.31 61.0933V61.9396C434.31 65.4961 431.425 68.3791 427.866 68.3791Z" fill="white"/>
<path d="M421.399 62.9355C426.563 57.7749 426.563 49.4078 421.399 44.2471C416.236 39.0865 407.864 39.0865 402.7 44.2472C397.536 49.4078 397.536 57.7748 402.7 62.9355C407.864 68.0961 416.236 68.0961 421.399 62.9355Z" fill="white"/>
<path d="M403.331 65.0776C407.739 60.6723 407.739 53.5299 403.331 49.1245C398.923 44.7192 391.776 44.7192 387.369 49.1245C382.961 53.5299 382.961 60.6723 387.369 65.0776C391.776 69.4829 398.923 69.4829 403.331 65.0776Z" fill="white"/>
<path d="M376.198 66.3712C378.88 63.6911 378.88 59.346 376.198 56.6659C373.517 53.9859 369.169 53.9859 366.487 56.6659C363.806 59.346 363.806 63.6911 366.487 66.3712C369.169 69.0512 373.517 69.0512 376.198 66.3712Z" fill="white"/>
<path d="M201.96 122.562C201.96 122.562 196.604 127.661 196.519 129.179C196.434 130.696 197.804 138.614 199.626 140.855C201.447 143.095 207.604 146.635 207.604 146.635L201.96 122.562Z" fill="#F8A887"/>
<path d="M203.158 136.597C203.158 136.597 202.173 129.277 200.554 128.071C198.935 126.865 197.901 130.222 197.901 130.222C197.901 130.222 199.625 128.255 200.53 129.67C201.435 131.085 201.435 132.808 201.435 132.808C201.435 132.808 200.487 130.913 199.28 131.516C198.074 132.119 198.591 133.164 198.591 133.164C198.591 133.164 199.797 132.033 200.53 132.808C201.262 133.583 200.415 134.234 200.882 134.813C201.348 135.392 202.627 137.237 203.158 136.597Z" fill="#E88058"/>
<path d="M308.899 194.157C308.899 194.157 332.789 199.04 337.206 229.568C338.925 241.454 345.561 261.793 354.124 270.699C365.844 282.888 373.335 310.44 351.021 311.583C339.935 312.151 308.364 301.451 300.902 295.18C293.44 288.909 299.247 218.272 308.899 194.157Z" fill="#006837"/>
<path d="M324.723 250.238C324.723 250.238 315.492 262.392 316.082 269.282C316.672 276.172 322.556 275.114 324.723 275.423C326.891 275.732 337.377 263.253 349.887 270.698C349.887 270.698 335.205 267.162 326.977 279.823C326.977 279.823 354.429 265.938 361.515 291.505L327.916 287.221C327.916 287.221 312.626 285.036 309.468 279.007C306.31 272.978 308.656 243.348 316.55 237.147C316.55 237.147 308.11 255.499 313.842 266.775C315.044 269.14 313.407 256.161 324.723 250.238Z" fill="#004E29"/>
<path d="M326.005 283.069C326.005 283.069 333.281 278.325 344.19 278.919C355.1 279.512 361.515 281.631 365.388 292.354C368.585 301.208 363.674 307.491 359.157 312.583C354.641 317.676 318.827 300.139 326.005 283.069Z" fill="#004923"/>
<path d="M315.008 230.444C315.837 231.773 318.81 231.689 320.342 233.185C321.873 234.681 316.766 247.354 318.744 248.516C321.031 249.859 325.654 243.52 336.04 244.315C340.049 244.622 333.527 206.443 316.587 197.432C308.524 193.143 309.25 221.217 315.008 230.444Z" fill="#009245"/>
<path d="M334.813 250.238C334.813 250.238 320.342 257.055 320.342 264.326C320.342 271.598 325.513 266.356 331.717 264.326C337.922 262.296 346.713 262.296 346.713 262.296C346.713 262.296 344.757 247.31 334.813 250.238Z" fill="#009245"/>
<path d="M168.705 193.739C168.705 193.739 150.886 198.821 144.147 211.223C137.409 223.625 134.984 241.104 130.872 250.899C121.603 272.976 94.0782 295.602 118.493 311.595C146.532 329.961 165.101 269.792 165.101 269.792L185.073 310.032L168.705 193.739Z" fill="#006837"/>
<path d="M166.445 193.49C166.445 193.49 145.546 195.986 139.539 227.501C138.16 234.736 149.948 237.742 157.637 229.568C159.323 227.776 161.945 224.228 166.445 238.181C168.764 245.373 170.082 206.676 166.445 193.49Z" fill="#009245"/>
<path d="M262.785 172.942C262.785 172.942 268.629 172.572 271.256 179.62C272.556 183.108 305.864 191.506 315.171 195.64C324.478 199.774 309.742 226.68 304.571 248.729C299.4 270.777 300.769 335.554 300.769 335.554C300.769 335.554 287.318 341.711 238.022 339.644C188.727 337.577 175.449 336.413 175.449 336.413C175.449 336.413 181.815 261.096 173 241.804C164.186 222.511 159.869 195.965 164.912 192.884C172.444 188.282 193.924 186.66 200.64 179.276C206.414 172.927 211.271 175.774 215.893 174.233C220.515 172.692 262.785 172.942 262.785 172.942Z" fill="#009245"/>
<path d="M214.071 178.401C214.071 178.401 213.138 200.422 234.335 202.007C259.672 203.902 261.829 177.375 261.829 177.375L214.071 178.401Z" fill="#00341C"/>
<path d="M152.313 303.49C152.313 303.49 159.834 274.105 156.667 270.698C153.5 267.291 131.783 267.808 131.783 267.808C131.783 267.808 142.157 264.191 150.673 265.224C159.188 266.258 162.005 264.328 156.344 256.181C153.112 251.53 143.177 249.033 143.177 249.033C143.177 249.033 157.637 248.3 160.998 259.54C164.005 269.597 163.601 246.446 160.481 239.645C160.481 239.645 169.141 238.548 171.14 261.329C172.679 278.876 179.072 301.927 179.072 301.927C179.072 301.927 165.627 266.041 164.301 273.64C161.81 287.911 152.313 303.49 152.313 303.49Z" fill="#004923"/>
<path d="M274.809 119.98C274.809 119.98 275.789 127.96 275.922 129.827C276.055 131.693 272.168 138.842 271.593 139.206C271.018 139.57 267.242 142.792 267.242 142.792C267.242 142.792 267.259 136.298 267.89 131.211C268.521 126.123 272.266 116.966 274.809 119.98Z" fill="#F8A887"/>
<path d="M262.96 150.655C262.96 150.655 260.459 170.453 261.817 177.898C261.817 177.898 255.731 197.087 237.833 199.091C219.936 201.095 213.972 180.663 213.972 180.663C213.972 180.663 214.93 165.649 212.137 157.251C209.344 148.853 243.928 158.856 262.96 150.655Z" fill="#F8A887"/>
<path d="M213.08 175.984C213.08 175.984 203.051 185.043 222.011 199.715C222.011 199.715 219.161 201.741 205.454 191.9C203.123 190.226 201.202 196.753 203.198 199.23C214.675 213.469 227.226 218.276 230.587 219.693C230.587 219.693 231.022 233.329 228.009 232.934C190.631 228.038 181.184 198.241 181.184 198.241C181.184 198.241 182.648 211.348 186.932 216.277C208.684 241.307 228.654 239.064 228.654 239.064C228.654 239.064 232.993 261.597 228.439 260.761C210.18 257.408 190.117 244.305 197.291 250.239C212.504 262.822 224.462 262.788 228.869 265.996C234.082 269.791 232.08 275.05 229.943 274.83C218.343 273.64 194.499 275.581 188.268 278.182C184.549 279.735 187.155 264.327 181.394 248.704C179.625 243.904 166.049 220.216 175.45 226.786C189.561 236.649 192.614 234.779 190.117 232.988C172.802 220.569 170.631 205.627 169.53 200.783C167.72 192.82 170.425 191.048 179.216 189.867C188.006 188.686 196.446 186.324 197.092 186.561C197.738 186.797 200.782 188.804 202.478 189.159C202.478 189.159 198.929 184.522 200.671 180.98C202.636 176.985 213.08 175.984 213.08 175.984Z" fill="#04AA3F"/>
<path d="M271.256 114.705C271.288 115.218 268.149 137.77 267.246 142.251C266.343 146.732 261.696 159.296 255.388 165.918C249.081 172.54 221.171 167.837 216.954 163.192C212.738 158.546 204.094 141.235 202.539 134.472C200.983 127.709 203.713 105.953 203.713 105.953C203.713 105.953 212.134 84.4471 238.402 86.7189C264.67 88.9908 270.805 107.647 271.256 114.705Z" fill="#F8A887"/>
<path d="M327.916 287.221C327.916 287.221 343.34 279.578 350.63 282.293C365.387 287.79 371.359 312.939 352.055 314.317C332.751 315.695 330.76 314.351 316.463 316.286C303.271 318.072 315.372 283.167 327.916 287.221Z" fill="#E88058"/>
<path d="M259.707 77.023C259.707 77.023 253.475 68.3051 237.246 72.455C221.018 76.605 219.149 75.2085 213.108 76.0264C207.067 76.8442 207.067 76.8442 207.067 76.8442C207.067 76.8442 212.914 80.4649 216.832 80.0067C220.75 79.5486 216.469 82.2181 210.231 82.8795C203.935 83.5471 197.797 90.6848 196.721 95.0256C195.645 99.3664 193.132 103.251 193.132 103.251C193.132 103.251 197.715 101.072 200.51 98.4185C201.68 97.3081 201.385 99.1761 196.717 103.714C192.049 108.252 194.705 121.265 196.143 124.398C197.581 127.53 201.336 125.865 203.62 121.36C205.904 116.856 208.973 113.33 213.087 111.11C217.201 108.889 219.037 108.424 219.037 108.424C219.037 108.424 217.671 109.79 215.577 111.46C214.113 112.627 211.479 114.202 211.479 114.202C211.479 114.202 218.369 113.65 221.267 112.461C228.556 109.474 233.706 102.243 237.084 97.2644C237.084 97.2644 236.939 102.6 233.381 106.518C229.822 110.435 226.983 114.581 226.983 114.581C226.983 114.581 231.015 113.095 234.966 112.343C238.917 111.591 245.35 109.924 246.312 107.95C246.312 107.95 245.121 110.643 243.195 111.916C241.269 113.189 247.293 111.18 249.823 108.487C252.353 105.794 253.038 102.302 253.038 102.302C253.038 102.302 256.025 105.206 256.44 110.153C256.744 113.765 261.353 117.646 261.353 117.646C261.359 116.86 260.361 113.641 260.446 112.735C260.446 112.735 263.521 114.101 262.415 118.355C260.99 123.834 263.687 124.653 263.661 129.865C263.658 130.589 265.379 126.244 265.462 126.956C265.943 131.089 264.566 137.836 265.09 138.566C265.09 138.566 269.301 133.033 269.473 127.888C269.585 124.57 271.706 121.763 271.706 121.763C271.706 121.763 275.161 122.793 275.547 126.201C275.607 126.736 277.862 122.593 278.22 119.362C278.578 116.131 275.532 106.04 274.563 104.045C273.594 102.05 277.988 108.037 279.051 111.872C279.051 111.872 279.386 107.507 278.09 104.435C276.794 101.364 272.954 93.0591 268.904 90.6781C264.854 88.297 261.436 70.8217 259.707 77.023Z" fill="#1A1A1A"/>
<path d="M272.405 137.599C272.405 137.599 270.726 144.697 271.217 148.32C271.217 148.32 269.624 147.586 269.416 146.448C269.207 145.31 267.319 153.479 267.822 156.991C267.822 156.991 265.88 156.185 265.512 154.472C265.144 152.758 262.73 162.695 262.375 163.882C262.021 165.069 262.153 154.837 262.96 151.581C263.767 148.325 267.761 141.247 269.23 140.072C270.699 138.896 272.405 137.599 272.405 137.599Z" fill="#1A1A1A"/>
<path d="M207.805 147.708C207.805 147.708 208.832 155.888 208.67 158.695C208.67 158.695 210.098 156.549 210.098 155.88C210.098 155.88 211.807 157.212 212.435 161.157C212.943 164.344 214.132 167.843 214.082 167.572C214.082 167.572 214.942 163.478 214.941 162.14C214.941 160.802 211.498 149.298 207.805 147.708Z" fill="#1A1A1A"/>
<path d="M206.081 117.324C206.081 117.324 205.875 127.854 205.648 132.586C205.421 137.319 207.072 143.894 209 146.635C209 146.635 204.525 143.389 203.406 140.069C202.286 136.748 202.539 134.472 202.539 134.472C202.539 134.472 201.568 136.52 201.397 138.062C201.397 138.062 200.424 134.758 200.831 130.418C201.238 126.077 200.696 125.075 200.781 125.009C200.867 124.943 206.081 117.324 206.081 117.324Z" fill="#1A1A1A"/>
<path d="M155.91 292.108C155.596 285.225 151.491 279.068 145.274 276.089C137.795 272.506 126.812 269.48 117.041 275.49C100.242 285.822 107.87 310.161 113.181 313.256C118.016 316.073 157.359 323.829 155.91 292.108Z" fill="#004923"/>
<path d="M220.506 167.587C220.506 167.587 227.124 180.812 239.717 179.27C247.057 178.37 253.467 175.984 256.638 169.198C258.407 165.412 259.012 175.84 258.854 178.371C258.695 180.901 252.602 193.634 243.147 197.913C243.147 197.913 254.383 197.312 261.817 177.898C261.817 177.898 261.375 165.545 262.96 155.581C262.96 155.581 252.281 172.748 239.717 173.027C227.151 173.305 220.506 167.587 220.506 167.587Z" fill="#E88058"/>
<path d="M215.893 166.099C215.893 166.099 217.155 177.249 220.116 182.462C224.956 190.983 233.79 194.302 232.707 193.269C231.623 192.235 223.994 185.094 224.856 173.993C224.856 173.993 219.857 172.876 215.893 166.099Z" fill="#F9BDA7"/>
<path d="M238.2 126.736L239.308 131.98C239.308 131.98 235.597 130.984 233.179 131.98C230.761 132.976 234.006 126.479 234.006 126.479C234.006 126.479 237.567 125.708 238.2 126.736Z" fill="#F9BDA7"/>
<path d="M317.067 222.333C317.756 223.195 323.099 232.798 332.539 231.635C336.442 231.154 336.061 219.13 327.882 208.639C324.241 203.969 328.658 217.166 326.374 221.816C325.029 224.557 317.067 222.333 317.067 222.333Z" fill="#04AA3F"/>
<path d="M249.277 131.414C250.385 131.414 251.283 130.189 251.283 128.679C251.283 127.169 250.385 125.945 249.277 125.945C248.169 125.945 247.271 127.169 247.271 128.679C247.271 130.189 248.169 131.414 249.277 131.414Z" fill="#1A1A1A"/>
<path d="M159.532 199.229C158.426 200.041 144.752 206.141 143.176 223.711C142.438 231.946 157.636 221.736 161.428 215.316C165.22 208.897 161.135 198.054 159.532 199.229Z" fill="#04AA3F"/>
<path d="M216.583 203.998C216.583 203.998 239.852 209.292 251.227 201.21C262.603 193.128 264.441 181.764 264.441 181.764C264.441 181.764 269.344 181.008 273.471 184.234C277.598 187.461 303.901 195.119 309.987 197.975C325.057 205.048 276.919 236.91 259.081 244.305C241.242 251.7 245.476 235.081 245.476 235.081C245.476 235.081 273.471 218.326 279.149 204.206C281.567 198.193 268.956 201.21 268.956 201.21C268.956 201.21 240.379 225.758 216.583 203.998Z" fill="#04AA3F"/>
<path d="M131.783 257.53C131.783 257.53 136.35 250.238 140.659 250.238C144.968 250.238 154.337 256.181 154.565 259.798C154.793 263.416 147.812 255.52 131.783 257.53Z" fill="#009245"/>
<path d="M124.803 272.07C124.803 272.07 124.889 267.045 128.336 264.326C131.783 261.607 131.499 256.73 134.41 254.099C137.321 251.468 135.194 247.123 137.342 242.142C139.489 237.162 141.042 237.147 141.928 231.979C142.814 226.812 148.193 204.78 166.445 197.795C166.445 197.795 181.939 193.739 190.557 191.5C199.175 189.261 202.97 186.477 203.57 184.007C204.17 181.537 213.972 180.663 213.972 180.663L214.1 177.375C214.1 177.375 204.311 177.224 202.214 180.734C199.692 184.954 190.188 188.166 183.88 189.137C177.572 190.108 166.599 194.79 160.567 197.795C154.534 200.802 146.584 208.584 143.177 217.482C139.77 226.38 141.655 230.535 138.16 234.735C134.666 238.936 134.455 247.741 133.593 251.013C132.731 254.286 129.706 254.372 128.164 260.76C127.173 264.866 118.993 269.794 118.752 274.83L124.803 272.07Z" fill="#00341C"/>
<path d="M160.394 251.961C160.394 251.444 156.2 240.936 150.414 237.664C144.629 234.391 138.414 239.903 139.407 241.97C140.401 244.037 146.466 242.678 150.672 244.305C154.879 245.932 160.394 251.961 160.394 251.961Z" fill="#009245"/>
<path d="M261.375 179.775C261.375 179.775 265.953 177.75 268.331 182.472C270.71 187.193 281.044 189.605 292.075 193.739C303.106 197.873 312.937 200.032 318.88 204.981C324.823 209.931 332.672 227.156 332.539 231.635C332.407 236.113 337.197 234.974 336.619 239.645C336.04 244.315 336.667 246.104 336.667 246.104C336.667 246.104 337.159 248.186 342.059 254.099C346.958 260.013 343.093 265.418 348.608 268.058C354.124 270.698 360.256 277.911 360.006 283.682L363.807 287.962C363.807 287.962 364.637 286.067 359.122 276.765C353.606 267.463 350.95 267.315 348.938 263.632C346.925 259.949 346.381 255.38 343.487 252.249C340.594 249.118 339.099 247.38 339.387 244.123C339.675 240.866 339.123 236.545 337.233 234.649C335.342 232.753 334.647 227.845 334.216 225.175C333.785 222.505 327.58 205.797 318.88 200.371C311.755 195.928 273.331 185.637 270.882 181.738C268.545 178.018 266.537 175.775 262.044 175.999C262.044 175.999 261.862 178.179 261.375 179.775Z" fill="#00341C"/>
<path opacity="0.42" d="M187.627 199.23C187.627 199.23 188.545 202.846 198.097 210.68C207.549 218.431 217.272 218.371 217.272 218.371C217.272 218.371 195.9 206.12 193.314 200.113C190.729 194.105 185.573 195.406 187.627 199.23Z" fill="#B6DEB8"/>
<path opacity="0.42" d="M325.654 260.76C325.654 260.76 328.82 254.502 335.509 252.667C342.199 250.831 344.528 253.202 344.737 255.273C344.946 257.344 343.524 256.2 340.551 256.384C337.578 256.568 329.759 258.105 325.654 260.76Z" fill="#F8CF83"/>
<path d="M334.087 274.83C334.604 274.655 341.714 271.425 348.694 272.2C355.675 272.976 358.739 276.429 358.519 278.272C358.298 280.115 354.253 275.909 348.565 274.83C342.877 273.751 334.087 274.83 334.087 274.83Z" fill="#04AA3F"/>
<path d="M321.548 243.52C321.548 243.52 326.25 237.319 330.75 236.027C335.251 234.736 337.035 237.061 334.98 238.353C332.924 239.645 327.624 239.774 321.548 243.52Z" fill="#04AA3F"/>
<path d="M329.951 281.931C329.951 281.931 338.267 277.497 346.712 278.273C355.158 279.048 363.086 283.422 365.068 291.505C365.068 291.505 364.512 291.192 361.516 287.962C358.519 284.732 352.055 277.062 329.951 281.931Z" fill="#009245"/>
<path d="M220.849 117.324C220.849 117.324 230.716 119.476 234.594 119.961C238.472 120.445 245.225 118.723 248.786 117.948C252.347 117.172 254.415 116.053 254.157 114.416C253.898 112.78 254.329 108.99 253.467 107.182C252.605 105.373 250.692 111.574 246.779 113.297C242.867 115.019 232.957 114.761 228.648 115.45C224.339 116.139 221.196 114.675 217.597 115.45C213.997 116.225 212.188 117.861 212.188 117.861C212.188 117.861 217.1 116.53 220.849 117.324Z" fill="#F9BDA7"/>
<path d="M247.666 140.58C247.666 140.58 248.873 138.182 252.406 138.391C255.939 138.599 260.421 138.105 260.765 139.386C261.11 140.666 259.514 143.509 257.166 143.681C254.819 143.853 246.441 141.885 247.666 140.58Z" fill="#F9BDA7"/>
<path d="M213.556 136.793C213.556 136.793 223.576 138.862 224.642 139.379C225.708 139.895 225.104 141.876 223.036 142.393C220.968 142.91 215.969 143.513 214.763 142.393C213.556 141.273 211.453 136.351 213.556 136.793Z" fill="#F9BDA7"/>
<path d="M268.979 135.517C268.979 135.517 269.965 128.197 271.584 126.991C273.202 125.785 274.236 129.142 274.236 129.142C274.236 129.142 272.513 127.175 271.608 128.59C270.703 130.005 270.703 131.728 270.703 131.728C270.703 131.728 271.651 129.833 272.858 130.436C274.064 131.039 273.547 132.084 273.547 132.084C273.547 132.084 272.34 130.953 271.608 131.728C270.875 132.503 271.723 133.154 271.256 133.733C270.789 134.312 269.511 136.157 268.979 135.517Z" fill="#E88058"/>
<path d="M270.236 124.474C270.236 124.474 263.532 137.36 261.375 138.566L263.686 138.848C263.686 138.848 269.019 129.561 269.473 127.889C269.927 126.216 270.236 124.474 270.236 124.474Z" fill="white"/>
<path d="M244.054 122.125C244.054 122.125 243.193 123.558 246.182 123.304C249.171 123.05 252.276 122.74 254.537 125.256C254.537 125.256 255.126 126.14 255.558 124.891C255.99 123.641 252.864 121.681 250.872 121.118C247.756 120.236 244.032 121.26 244.054 122.125Z" fill="#1A1A1A"/>
<path d="M225.232 131.414C226.34 131.414 227.238 130.189 227.238 128.679C227.238 127.169 226.34 125.945 225.232 125.945C224.123 125.945 223.225 127.169 223.225 128.679C223.225 130.189 224.123 131.414 225.232 131.414Z" fill="#1A1A1A"/>
<path d="M230.454 122.125C230.454 122.125 231.315 123.558 228.326 123.304C225.337 123.05 222.232 122.74 219.972 125.256C219.972 125.256 219.383 126.14 218.951 124.891C218.519 123.641 221.644 121.681 223.636 121.118C226.752 120.236 230.476 121.26 230.454 122.125Z" fill="#1A1A1A"/>
<path d="M200.781 125.009C200.781 125.009 207.073 135.943 209 136.625C210.927 137.307 206.807 137.186 206.807 137.186L200.731 126.556L200.781 125.009Z" fill="white"/>
<path d="M231.021 182.543C231.021 182.543 237.041 186.849 239.308 186.849C241.575 186.849 245.09 185.815 246.78 182.543C248.469 179.27 239.772 184.437 231.021 182.543Z" fill="#F9BDA7"/>
<path d="M306.979 222.846C306.979 222.846 296.896 240.75 293.064 248.703C289.232 256.656 279.089 265.673 279.089 265.673C279.089 265.673 288.781 260.62 293.034 256.384C297.287 252.148 292.454 262.392 290.843 268.058C289.232 273.724 290.95 280.309 290.95 280.309C290.95 280.309 261.375 278.182 247.343 278.182C244.231 278.182 245.39 268.784 247.45 268.189C252.283 266.794 259.265 265.137 274.41 253.597C275.022 253.131 256.902 263.258 246.054 264.326C244.168 264.512 245.803 252.219 247.182 252.008C259.265 250.164 261.843 249.987 274.087 244.305C286.332 238.623 300.178 225.625 306.979 222.846Z" fill="#04AA3F"/>
<path d="M204.692 156.796C201.451 154.574 198.999 151.382 197.616 147.705C193.389 136.46 184.024 106.853 194.189 87.699C207.805 62.0428 265.805 58.1784 279.148 87.8052C291.173 114.505 278.858 154.003 268.979 157.64C262.19 160.14 268.599 136.12 267.242 123.175C265.884 110.23 262.552 107.147 236.111 106.855C208.373 106.548 203.365 119.679 205.122 129.142C206.691 137.592 216.539 164.918 204.692 156.796Z" fill="#009245"/>
<path d="M195.291 85.7934C195.291 85.7934 208.684 66.6369 237.991 66.9972C260.445 67.2733 270.739 78.0723 271.608 79.4595C272.476 80.8466 256.954 84.6498 239.796 83.6069C222.638 82.5641 195.209 95.9051 195.291 85.7934Z" fill="#04AA3F"/>
<path d="M207.603 158.286C207.603 158.286 205.196 138.275 202.059 131.979C198.922 125.684 199.992 117.63 208.684 111.224C217.376 104.819 225.473 103.252 239.308 103.714C253.143 104.175 268.318 108.2 270.236 115.446C272.154 122.692 267.856 148.794 267.991 152.247C268.126 155.7 268.979 157.64 268.979 157.64C268.979 157.64 263.776 159.564 264.098 148.615C264.42 137.666 267.889 122.84 266.718 119.385C265.548 115.929 254.283 108.844 240.824 108.361C227.364 107.878 213.203 112.535 208.683 119.385C204.164 126.234 206.758 131.574 208.683 137.599C210.609 143.624 213.781 159.746 207.603 158.286Z" fill="#333333"/>
<path d="M243.939 68.2157C242.363 84.3532 243.713 104.035 243.713 104.035L229.202 104.019C228.697 93.1518 227.238 69.21 227.238 69.21C227.238 69.21 227.507 66.9634 234.533 66.6718C240.27 66.4336 243.939 68.2157 243.939 68.2157Z" fill="white"/>
<path opacity="0.5" d="M197.172 103.427C197.172 103.427 211.184 86.8474 235.107 86.2767C259.03 85.706 272.964 96.9909 277.001 103.427C281.038 109.863 276.319 129.521 276.319 129.521C276.319 129.521 243.293 146.13 198.355 129.916C198.355 129.916 193.381 108.718 197.172 103.427Z" fill="#99DDD8"/>
<path d="M208.684 157.64C208.684 157.64 220.866 178.764 233.943 179.147C247.02 179.53 256.158 175.967 267.298 155.448L266.515 152.247C266.515 152.247 253.182 176.793 236.165 176.632C219.148 176.471 209.513 153.391 209.513 153.391L208.684 157.64Z" fill="#1A1A1A"/>
<path opacity="0.42" d="M230.03 88.4878C230.03 88.4878 219.461 88.4327 202.791 99.8727L207.289 131.188C207.289 131.188 231.08 134.381 246.599 133.053L230.03 88.4878Z" fill="white"/>
<path opacity="0.42" d="M244.058 88.4878L259.49 133.424C259.49 133.424 266.577 132.228 269.324 130.769L254.9 90.7465C254.9 90.7465 250.819 88.5343 244.058 88.4878Z" fill="white"/>
<path d="M276.714 103.132C276.714 103.132 282.086 105.695 285.365 109.81C287.62 112.642 285.88 133.383 282.642 132.083C279.404 130.784 275.922 129.827 275.922 129.827C275.922 129.827 276.763 110.803 276.714 103.132Z" fill="#1A1A1A"/>
<path d="M278.411 104.035C278.411 104.035 282.84 106.148 285.544 109.541C287.404 111.876 285.969 128.978 283.299 127.906C280.629 126.835 277.758 126.046 277.758 126.046C277.758 126.046 278.451 110.36 278.411 104.035Z" fill="#006E34"/>
<path d="M196.717 103.714C196.717 103.714 189.987 107.808 188.375 111.225C186.764 114.641 188.651 131.06 190.953 132.548C193.256 134.036 199.786 130.885 199.786 130.885C199.786 130.885 196.68 113.719 196.717 103.714Z" fill="#1A1A1A"/>
<path d="M230.023 175.548C230.023 175.548 231.201 179.215 234.68 179.775C238.159 180.336 241.813 180.42 244.336 178.446L245.476 174.348C245.476 174.348 237.931 177.25 230.023 175.548Z" fill="#338B5D"/>
<path d="M195.66 334.542C195.66 334.542 166.426 330.694 158.251 340.824C150.076 350.954 144.016 427.655 144.016 427.655H326.634C326.634 427.655 325.968 365.831 319.998 344.214C314.129 322.962 261.222 341.188 195.66 334.542Z" fill="#006837"/>
<path d="M43.8148 228.94C43.8148 228.94 59.0856 237.772 70.7646 237.256C82.4437 236.739 93.9766 236.864 98.1811 240.757C106.764 248.705 99.953 289.278 112.049 303.491C130.995 325.751 163.728 306.372 145.003 272.707C134.774 254.314 121.669 227.28 120.582 222.417C119.495 217.555 103.068 218.343 93.529 222.417C83.9905 226.491 51.7565 220.435 43.8148 220.428C35.8731 220.421 43.8148 228.94 43.8148 228.94Z" fill="#E88058"/>
<path opacity="0.42" d="M270.805 221.074C270.805 221.074 286.403 212.78 292.177 208.558C297.951 204.335 299.503 199.678 298.21 199.293C296.917 198.909 285.542 195.809 279.854 193.742C274.166 191.675 280.51 197.094 285.87 199.293C291.229 201.493 284.249 211.199 270.805 221.074Z" fill="#B6DEB8"/>
<path d="M241.531 200.358H233.381V296.891H241.531V200.358Z" fill="#00341C"/>
<path d="M267.297 187.903C267.297 187.903 259.69 201.469 246.991 205.796C246.991 205.796 258.137 203.625 268.126 191.899C268.126 191.899 272.154 188.071 267.297 187.903Z" fill="#68CC8C"/>
<path opacity="0.42" d="M192.135 226.102C192.135 226.102 207.207 238.639 218.342 241.306C229.478 243.974 227.15 249.183 226.505 251.578C225.861 253.973 200.109 240.997 192.135 226.102Z" fill="#B6DEB8"/>
<path d="M337.942 305.738H139.772C137.139 305.738 135.004 303.605 135.004 300.973V299.043C135.004 296.411 137.139 294.278 139.772 294.278H337.943C340.576 294.278 342.711 296.411 342.711 299.043V300.973C342.711 303.605 340.576 305.738 337.942 305.738Z" fill="#001A0E"/>
<path d="M304.883 284.483C304.883 284.483 327.969 282.889 329.95 283.949C336.871 287.652 340.791 279.962 349.298 281.931C360.374 284.495 362.397 295.713 362.397 295.713C362.397 295.713 359.722 300.652 349.211 298.331C338.938 296.062 335.414 294.455 335.414 300.14C335.414 305.824 333.441 312.111 331.114 311.594C328.787 311.078 301.344 312.179 301.344 312.179C301.344 312.179 298.66 285.013 304.883 284.483Z" fill="#EC956D"/>
<path d="M333.797 285.999C333.797 285.999 337.913 284.867 343.636 282.277C347.531 280.516 357.631 285.947 357.63 287.789C357.63 291.321 353.143 289.64 343.636 289.834C334.13 290.029 333.797 285.999 333.797 285.999Z" fill="#F8A887"/>
<path d="M202.661 335.34C202.661 335.34 217.815 345.255 242.616 344.014C267.418 342.773 279.348 334.008 279.348 334.008L202.661 335.34Z" fill="#1A1A1A"/>
<path d="M188.661 282.271C188.661 282.271 177.417 284.309 177.902 290.61C178.387 296.911 177.205 317.67 183.274 324.036C189.342 330.402 213.645 340.936 238.022 340.5C262.399 340.063 290.044 329.044 295.246 324.68C300.449 320.316 301.873 290.703 300.601 287.796C299.328 284.888 297.137 282.623 288.458 281.931C279.78 281.239 206.239 276.219 188.661 282.271Z" fill="#006837"/>
<path d="M178.09 297.452C178.09 297.452 181.448 314.783 185.959 320.58C190.47 326.376 200.585 329.597 200.585 329.597C200.585 329.597 193.06 325.315 193.134 310.791C193.134 310.791 267.892 319.999 288.792 311.594C288.792 311.594 290.646 324.381 281.015 329.597C281.015 329.597 292.178 326.351 295.354 321.767C298.53 317.182 300.501 302.715 300.501 302.715C300.501 302.715 300.67 321.385 294.387 326.859C288.104 332.334 264.127 337.981 239.462 340.632C214.798 343.283 193.437 330.009 188.087 327.71C182.736 325.41 179.816 321.06 178.95 314.783C178.085 308.506 178.09 297.452 178.09 297.452Z" fill="#064026"/>
<path d="M193.424 306.695C193.424 306.695 190.93 319.266 200.585 326.752C209.484 333.653 215.392 339.36 238.022 340.499C260.652 341.639 270.463 335.291 282.572 326.967C288.658 322.783 291.165 306.786 286.009 304.21C280.854 301.634 269.782 312.474 239.867 311.594C212.542 310.791 194.175 297.555 193.424 306.695Z" fill="#1F80AA"/>
<path d="M196.517 311.865C196.517 311.865 194.208 322.521 203.148 328.867C211.389 334.716 216.86 339.554 237.816 340.52C258.773 341.486 267.857 336.105 279.071 329.049C284.707 325.502 287.028 311.942 282.254 309.759C277.48 307.575 267.227 316.764 239.525 316.018C214.221 315.337 197.213 304.117 196.517 311.865Z" fill="#29ABE2"/>
<path d="M206.156 312.573C206.156 312.573 204.174 324.961 210.971 328.877C217.769 332.793 223.153 338.333 238.371 339.232C253.59 340.131 264.366 334.199 269.559 329.106C273.368 325.369 273.026 313.491 269.559 311.459C266.091 309.428 259.712 315.228 239.612 316.437C222.854 317.444 208.322 304.798 206.156 312.573Z" fill="#7FCDEE"/>
<path d="M221.497 334.287C221.497 334.287 226.531 324.678 239.258 324.678C251.985 324.678 258.617 330.404 258.825 335.165C258.825 335.165 240.162 346.014 221.497 334.287Z" fill="#D4EEF9"/>
<path d="M160.592 374.74C162.686 374.525 164.789 375.043 166.576 376.154C171.827 379.417 186.644 389.089 187.35 394.737C187.955 399.57 172.105 398.453 162.651 397.366C158.279 396.863 154.787 393.465 154.198 389.106C153.384 383.085 153.744 375.444 160.592 374.74Z" fill="#064026"/>
<path d="M162.078 372.756C164.172 372.541 166.275 373.059 168.062 374.17C173.313 377.433 188.13 387.105 188.836 392.753C189.441 397.585 173.591 396.469 164.137 395.381C159.765 394.879 156.273 391.481 155.684 387.122C154.87 381.101 155.23 373.459 162.078 372.756Z" fill="#F7931E"/>
<path d="M314.358 374.74C312.265 374.525 310.161 375.043 308.374 376.154C303.123 379.417 288.307 389.089 287.6 394.737C286.996 399.57 302.846 398.453 312.299 397.366C316.672 396.863 320.163 393.465 320.753 389.106C321.567 383.085 321.206 375.444 314.358 374.74Z" fill="#064026"/>
<path d="M312.373 372.756C310.279 372.541 308.176 373.059 306.388 374.17C301.137 377.433 286.321 387.105 285.614 392.753C285.01 397.585 300.86 396.469 310.313 395.381C314.686 394.879 318.178 391.481 318.767 387.122C319.581 381.101 319.22 373.459 312.373 372.756Z" fill="#F7931E"/>
<path d="M178.841 340.98C178.841 340.98 184.985 359.235 188.853 366.898C197.745 384.516 236.495 395.667 236.495 395.667C236.495 395.667 271.025 387.079 283.567 368.323C293.321 353.737 299.237 340.632 299.237 340.632C299.237 340.632 292.529 336.101 273.493 340.98C254.456 345.859 233.097 349.723 216.71 345.43C200.323 341.136 176.693 334.913 178.841 340.98Z" fill="#009245"/>
<path d="M152.802 357.557C152.802 357.557 147.286 399.961 153.182 409.407C159.078 418.853 235.325 423.147 235.325 423.147C235.325 423.147 312.146 423.321 319.077 413.808C326.009 404.295 322.856 360.176 322.856 360.176C322.856 360.176 328.353 408.977 326.634 427.655H144.016C144.016 427.655 147.354 374.29 152.802 357.557Z" fill="#064026"/>
<path d="M190.87 346.181C190.87 346.181 208.378 364.455 223.2 372.708C238.023 380.961 245.477 377.635 261.083 367.06C276.689 356.486 287.417 346.181 285.598 346.181C283.778 346.181 271.577 343.283 261.083 348.435C250.589 353.588 233.189 360.673 220.3 353.588C207.411 346.503 185.33 340.706 190.87 346.181Z" fill="#04AA3F"/>
<path d="M165.011 391.615C168.933 391.615 172.113 388.437 172.113 384.517C172.113 380.596 168.933 377.418 165.011 377.418C161.088 377.418 157.908 380.596 157.908 384.517C157.908 388.437 161.088 391.615 165.011 391.615Z" fill="#FCEE21"/>
<path d="M309.482 391.615C313.404 391.615 316.584 388.437 316.584 384.517C316.584 380.596 313.404 377.418 309.482 377.418C305.559 377.418 302.379 380.596 302.379 384.517C302.379 388.437 305.559 391.615 309.482 391.615Z" fill="#FCEE21"/>
<path opacity="0.45" d="M161.503 374.037C161.503 374.037 157.905 375.057 157.908 379.189C157.909 380.983 178.733 391.802 182.439 391.615C186.145 391.427 177.606 385.068 172.772 380.599C167.939 376.13 163.929 372.749 161.503 374.037Z" fill="#FEFCD3"/>
<path opacity="0.45" d="M311.503 374.037C311.503 374.037 315.101 375.057 315.098 379.189C315.097 380.983 294.273 391.802 290.567 391.615C286.861 391.427 293.553 385.068 298.386 380.599C303.22 376.13 309.077 372.749 311.503 374.037Z" fill="#FEFCD3"/>
<path opacity="0.56" d="M208.461 306.695C208.461 306.695 215.96 327.625 236.589 332.119C257.219 336.614 256.043 311.594 256.043 311.594C256.043 311.594 234.538 316.352 208.461 306.695Z" fill="#D4EEF9"/>
<path d="M170.627 351.978C170.627 351.978 192.36 397.384 235.491 399.961C278.623 402.537 304.323 351.978 304.323 351.978C304.323 351.978 300.686 370.899 289.493 380.599C278.301 390.3 271.212 394.354 276.367 400.056C281.523 405.757 196.778 402.215 196.778 402.215C196.778 402.215 203.545 396.096 197.1 390.3C190.656 384.503 176.054 370.012 170.627 351.978Z" fill="#064026"/>
<path d="M292.694 427.655H183.997V406.555C183.997 402.913 186.951 399.96 190.595 399.96H286.095C289.739 399.96 292.693 402.913 292.693 406.555L292.694 427.655Z" fill="#1A1A1A"/>
<path d="M306.555 288.043C306.555 288.043 301.73 289.607 302.377 293.122C303.025 296.637 304.529 305.564 305.914 305.673C307.3 305.783 308.601 302.885 308.829 298.359C309.057 293.834 307.791 287.502 306.555 288.043Z" fill="#F9BDA7"/>
<path d="M314.789 288.088C314.789 288.088 310.894 284.848 310.281 288.793C309.668 292.738 313.201 302.815 314.408 304.366C315.614 305.916 317.252 304.882 317.338 302.988C317.424 301.093 315.859 289.467 314.789 288.088Z" fill="#F9BDA7"/>
<path d="M323.638 287.972C323.638 287.972 320.708 284.83 319.071 288.448C317.433 292.065 321.642 302.4 322.683 303.606C323.724 304.812 325.585 304.726 325.818 303.003C326.051 301.281 323.638 287.972 323.638 287.972Z" fill="#F9BDA7"/>
<path d="M329.329 288.173C329.329 288.173 327.07 287.012 326.735 289.682C326.399 292.352 330.245 301.912 330.735 302.86C331.225 303.807 333.293 302.687 333.207 300.793C333.121 298.898 330.671 288.397 329.329 288.173Z" fill="#F9BDA7"/>
<path d="M355.782 260.483C365.041 260.483 372.548 255.119 372.548 248.503C372.548 241.887 365.041 236.523 355.782 236.523C346.522 236.523 339.016 241.887 339.016 248.503C339.016 255.119 346.522 260.483 355.782 260.483Z" fill="#140723"/>
<path d="M108.726 254.255C108.726 254.255 114.806 264.471 125.267 263.045C135.729 261.62 137.544 258.778 137.544 258.778L134.056 251.961L108.726 254.255Z" fill="#AE6042"/>
<path d="M122.545 260.604C132.347 260.604 140.293 254.927 140.293 247.923C140.293 240.92 132.347 235.242 122.545 235.242C112.744 235.242 104.798 240.92 104.798 247.923C104.798 254.927 112.744 260.604 122.545 260.604Z" fill="#140723"/>
<path d="M137.341 251.406C137.341 250.081 138.648 249.152 139.9 249.587C147.949 252.385 172.49 261.057 177.075 264.327C182.575 268.25 191.26 285.445 191.26 285.445C191.26 285.445 187.813 287.859 184.61 286.429C184.61 286.429 178.489 271.259 171.891 268.058C165.543 264.979 143.768 255.468 138.497 253.17C137.795 252.864 137.341 252.172 137.341 251.406Z" fill="#999999"/>
<path d="M342.711 251.406C342.711 250.081 341.404 249.152 340.152 249.587C332.104 252.385 307.562 261.057 302.978 264.327C297.477 268.25 288.792 285.445 288.792 285.445C288.792 285.445 292.239 287.859 295.442 286.429C295.442 286.429 301.563 271.259 308.161 268.058C314.51 264.979 336.285 255.468 341.555 253.17C342.258 252.864 342.711 252.172 342.711 251.406Z" fill="#999999"/>
<path d="M202.446 281.262C202.446 281.262 210.287 273.64 239.088 273.64C267.159 273.64 277.452 281.71 277.452 281.71C277.452 281.71 228.854 275.577 202.446 281.262Z" fill="#7FCDEE"/>
<path d="M280.209 282.271C283.861 283.493 285.55 287.039 284.544 289.916C283.539 292.792 275.732 308.972 239.088 307.645C206.011 306.448 196.132 293.094 196.308 287.606C196.431 283.788 199.047 282.232 202.446 281.263C225.952 274.558 276.557 281.049 280.209 282.271Z" fill="#009245"/>
<path d="M271.187 281.908C274.008 283.039 275.312 286.321 274.536 288.984C273.759 291.646 265.128 303.826 236.863 301.674C208.597 299.521 206.245 291.926 206.381 286.846C206.476 283.312 208.496 281.872 211.122 280.974C229.278 274.768 268.367 280.777 271.187 281.908Z" fill="#04AA3F"/>
<path opacity="0.58" d="M122.545 251.049C129.255 251.049 134.695 247.87 134.695 243.949C134.695 240.027 129.255 236.848 122.545 236.848C115.835 236.848 110.395 240.027 110.395 243.949C110.395 247.87 115.835 251.049 122.545 251.049Z" fill="#43394F"/>
<path opacity="0.58" d="M355.781 251.578C362.12 251.578 367.259 248.575 367.259 244.87C367.259 241.166 362.12 238.163 355.781 238.163C349.442 238.163 344.304 241.166 344.304 244.87C344.304 248.575 349.442 251.578 355.781 251.578Z" fill="#43394F"/>
<path d="M188.851 289.681C191.456 289.265 193.367 287.675 193.12 286.129C192.873 284.583 190.561 283.666 187.956 284.082C185.351 284.498 183.44 286.088 183.687 287.634C183.934 289.18 186.246 290.096 188.851 289.681Z" fill="#140723"/>
<path d="M188 287.565C189.86 287.268 191.217 286.09 191.032 284.933C190.847 283.776 189.19 283.079 187.331 283.375C185.472 283.672 184.114 284.851 184.299 286.007C184.484 287.164 186.141 287.862 188 287.565Z" fill="#808080"/>
<path d="M296.668 287.637C296.915 286.091 295.004 284.5 292.399 284.085C289.794 283.669 287.482 284.585 287.235 286.131C286.988 287.677 288.9 289.267 291.505 289.683C294.109 290.099 296.421 289.182 296.668 287.637Z" fill="#140723"/>
<path d="M179.998 290.067C179.998 290.067 180.361 300.021 184.61 301.928C188.859 303.834 185.636 297.957 196.306 300.638C199.336 301.399 193.134 293.412 193.134 293.412C193.134 293.412 184.247 292.093 179.998 290.067Z" fill="#009245"/>
<path d="M297.419 290.067C297.419 290.067 297.056 300.021 292.807 301.928C288.558 303.834 291.78 297.957 281.11 300.638C278.08 301.399 284.282 293.412 284.282 293.412C284.282 293.412 293.17 292.093 297.419 290.067Z" fill="#009245"/>
<path d="M140.123 251.021C140.123 251.021 169.042 264.144 171.781 265.11C174.52 266.076 174.037 263.037 174.037 263.037C174.037 263.037 145.278 251.987 140.123 251.021Z" fill="#CCCCCC"/>
<path d="M338.522 251.024C338.522 251.024 309.602 264.147 306.863 265.113C304.124 266.079 304.608 263.039 304.608 263.039C304.608 263.039 333.366 251.99 338.522 251.024Z" fill="#CCCCCC"/>
<path d="M295.723 286.302C296.095 285.19 294.991 283.819 293.257 283.239C291.523 282.659 289.815 283.089 289.443 284.2C289.071 285.311 290.175 286.682 291.909 287.263C293.643 287.843 295.351 287.413 295.723 286.302Z" fill="#808080"/>
<path d="M364.027 304.887C364.027 304.887 358.562 312.096 351.84 313.13C345.118 314.163 333.933 312.426 332.77 312.426C331.606 312.426 336.207 308.867 334.333 302.312C334.333 302.312 332.548 307.668 330.049 308.529C327.55 309.39 326.989 306.998 323.783 308.028C320.578 309.058 318.086 307.853 316.44 307.838C312.501 307.802 309.212 308.746 304.128 309.316C300.718 309.698 300.8 300.208 300.8 300.208C300.8 300.208 299.95 316.284 303.34 314.647C304.798 313.943 308.889 314.323 309.665 315.184C310.441 316.045 317.459 316.23 320.31 315.721C323.161 315.212 328.561 316.932 336.236 317.184C343.911 317.436 353.824 317.436 358.563 314.422C363.301 311.407 364.027 304.887 364.027 304.887Z" fill="#AE6042"/>
<path d="M311.933 311.321C311.933 311.321 303.443 309.976 302.049 312.204C300.655 314.433 302.163 315.828 306.672 316.15C311.181 316.472 316.444 313.039 311.933 311.321Z" fill="#EC956D"/>
<path d="M177.836 299.878C177.836 299.878 152.033 299.604 139.869 301.563C127.705 303.522 135.086 308.514 139.048 306.743C143.011 304.971 147.635 303.62 156.842 303.491C166.05 303.361 177.995 305.536 177.995 305.536L177.836 299.878Z" fill="#666666"/>
<path d="M300.659 299.878C300.659 299.878 326.463 299.604 338.627 301.563C350.791 303.522 343.409 308.514 339.447 306.743C335.485 304.971 330.86 303.62 321.653 303.491C312.446 303.361 300.501 305.536 300.501 305.536L300.659 299.878Z" fill="#666666"/>
<path d="M195.757 104.329C195.757 104.329 191.319 106.148 188.615 109.541C186.755 111.875 188.19 128.978 190.86 127.906C193.53 126.835 196.401 126.045 196.401 126.045C196.401 126.045 195.716 110.654 195.757 104.329Z" fill="#006E34"/>
<path opacity="0.35" d="M199.786 130.885C199.786 130.885 200.993 132.142 204.865 133.685C208.97 135.32 223.963 138.925 240.334 138.149C256.705 137.373 272.405 133.685 275.922 129.827C275.922 129.827 239.308 145.234 199.786 130.885Z" fill="#1A1A1A"/>
<path d="M195.292 105.624C195.292 105.624 194.303 109.596 194.078 112.642C193.854 115.687 189.161 119.392 188.537 118.988C187.913 118.584 188.054 111.099 189.181 109.73C190.309 108.361 195.292 105.624 195.292 105.624Z" fill="#04AA3F"/>
<path d="M279.089 105.517C279.089 105.517 279.207 113.031 282.071 115.392C284.935 117.754 286.224 118.873 286.224 118.873C286.224 118.873 286.654 110.669 285.365 109.81C284.076 108.952 279.089 105.517 279.089 105.517Z" fill="#04AA3F"/>
<path d="M280.752 417.425H195.938C192.984 417.425 190.589 415.031 190.589 412.079V406.807C190.589 403.855 192.984 401.461 195.938 401.461H280.752C283.706 401.461 286.1 403.855 286.1 406.807V412.079C286.1 415.031 283.706 417.425 280.752 417.425Z" fill="#333333"/>
<path d="M125.844 228.282H36.3721L33.4655 182.92L31.512 181.221L29.7568 166.614L130.817 164.807L130.13 179.174L127.378 181.434L125.844 228.282Z" fill="#EAAF3B"/>
<path d="M223.555 149.037H252.465C252.465 149.037 251.686 160.586 238.01 160.762C224.333 160.937 223.555 149.037 223.555 149.037Z" fill="white"/>
<path d="M232.284 139.896C232.284 139.896 238.771 143.941 240.477 143.691C242.183 143.442 245.103 139.896 245.103 139.896C245.103 139.896 240.137 141.602 232.284 139.896Z" fill="#E88058"/>
<path d="M232.284 164.543C232.284 164.543 241.178 162.218 245.476 163.043C249.774 163.868 249.821 166.298 241.733 168.468C233.645 170.637 228.135 165.452 232.284 164.543Z" fill="#F9BDA7"/>
<path d="M31.5122 181.221L130.13 179.174L127.378 181.434L33.4658 182.92L31.5122 181.221Z" fill="#7E6031"/>
<path opacity="0.57" d="M81.6193 228.282C81.6193 228.282 69.0127 168.923 76.9252 165.684L85.7919 165.524C85.7919 165.524 84.0064 166.792 83.364 172.146C82.5098 179.266 86.1742 228.282 86.1742 228.282H81.6193Z" fill="#6F541E"/>
<path d="M75.7847 165.138C75.7847 165.138 45.0134 161.433 49.2561 152.352C53.499 143.271 80.2869 163.995 80.2869 163.995L76.5691 164.257C76.5691 164.257 62.477 153.331 56.681 152.949C50.885 152.567 50.6577 155.241 55.3172 157.686C59.9768 160.131 76.5748 163.984 76.5748 163.984L75.7847 165.138Z" fill="#C1272D"/>
<path d="M77.8592 228.282C77.8592 228.282 70.096 166.92 77.4213 162.661C82.0637 159.963 83.6195 162.953 83.6195 162.953C83.6195 162.953 80.6756 163.507 79.7053 170.614C78.7352 177.721 82.414 228.282 82.414 228.282H77.8592Z" fill="#C1272D"/>
<path d="M119.96 207.449H93.5625V220.44H119.96V207.449Z" fill="#F9DB9A"/>
<path d="M80.2866 162.405C80.2866 162.405 96.8193 144.481 110.288 148.165C123.758 151.849 105.323 163.122 80.5657 164.807V163.659C80.5657 163.659 107.179 156.285 108.987 153.133C110.794 149.982 105.538 149.048 99.2318 151.382C92.9251 153.717 82.5391 161.913 82.5391 161.913L80.2866 162.405Z" fill="#C1272D"/>
<path d="M136.809 261.329C136.809 261.329 130.59 266.041 116.634 264.247C112.898 263.767 125.096 287.408 128.806 290.067C132.517 292.727 144.43 291.143 146.766 290.067C149.101 288.992 144.903 272.393 136.809 261.329Z" fill="#EC956D"/>
<path d="M115.174 228.282C115.174 228.282 89.0861 230.515 74.2756 230.515C59.465 230.515 48.7787 229.399 48.7787 229.399C48.7787 229.399 58.5015 235.067 69.6257 236.205C76.7794 236.937 96.5059 234.849 99.796 241.524C103.086 248.198 104.488 263.716 105.363 273.64C106.239 283.564 110.507 305.104 123.527 309.916C136.546 314.729 141.74 309.916 141.74 309.916C141.74 309.916 129.3 318.626 115.93 309.149C102.561 299.672 103.261 268.18 103.261 268.18C103.261 268.18 102.861 241.895 95.4403 240.32C88.0201 238.744 66.5872 239.776 53.6839 235.155C43.1728 231.39 42.2969 228.282 42.2969 228.282H115.174Z" fill="#AE6042"/>
<path d="M136.078 262.901C136.078 262.901 142.826 276.386 144.78 282.339C146.734 288.291 139.363 291.6 137.341 286.882C135.32 282.164 128.806 265.3 128.806 265.3C128.806 265.3 133.485 264.827 136.078 262.901Z" fill="#F8A887"/>
<path d="M88.3706 231.216C88.3706 231.216 97.6554 234.542 102.385 235.242C107.115 235.943 112.583 235.644 118.752 234.367C124.922 233.09 119.96 229.815 119.96 229.815C119.96 229.815 109.568 230.34 88.3706 231.216Z" fill="#EC956D"/>
<path d="M218.91 69.8573C218.91 69.8573 218.44 63.8077 226.282 62.5976C234.124 61.3874 249.173 61.0373 251.284 63.8385C253.395 66.6398 254.178 68.8984 254.178 68.8984C254.178 68.8984 252.449 74.8622 249.768 74.953C247.088 75.0438 225.131 74.6935 223.146 75.5106C221.161 76.3277 218.91 69.8573 218.91 69.8573Z" fill="#007644"/>
<path d="M223.146 75.5108L225.599 70.6152C225.599 70.6152 242.3 69.5625 247.672 70.6107L249.768 74.9531L223.146 75.5108Z" fill="#1A1A1A"/>
<path d="M224.26 63.0658C224.26 63.0658 229.671 61.0372 237.854 61.2707C246.037 61.5041 250.231 63.0658 250.231 63.0658C250.231 63.0658 248.829 67.2534 242.533 67.6902C228.869 68.6383 222.687 65.5614 224.26 63.0658Z" fill="#04AA3F"/>
<path d="M274.236 130.584C274.236 130.584 269.845 144.259 270.73 148.577C271.614 152.896 276.601 150.396 279.889 140.441C279.889 140.441 276.038 154.33 268.979 157.64C268.979 157.64 265.512 154.472 270.236 132.27L274.236 130.584Z" fill="#004923"/>
<path d="M199.786 130.885C199.786 130.885 204.797 145.322 204.866 149.038C204.948 153.445 198.588 150.99 195.3 141.035C195.3 141.035 198.854 155.814 207.739 158.379C207.739 158.379 210.737 157.64 202.451 131.852L199.786 130.885Z" fill="#004923"/>
<defs>
<linearGradient id="paint0_linear_2075_1975" x1="233.084" y1="433.234" x2="233.084" y2="187.339" gradientUnits="userSpaceOnUse">
<stop stop-color="#1A1A1A"/>
<stop offset="0.1372" stop-color="#262626"/>
<stop offset="0.4371" stop-color="#3C3C3C"/>
<stop offset="0.7285" stop-color="#494949"/>
<stop offset="1" stop-color="#4D4D4D"/>
</linearGradient>
<linearGradient id="paint1_linear_2075_1975" x1="236.1" y1="430.385" x2="240.309" y2="190.326" gradientUnits="userSpaceOnUse">
<stop stop-color="#1A1A1A"/>
<stop offset="0.1372" stop-color="#262626"/>
<stop offset="0.4371" stop-color="#3C3C3C"/>
<stop offset="0.7285" stop-color="#494949"/>
<stop offset="1" stop-color="#4D4D4D"/>
</linearGradient>
</defs>
</svg>
