<svg width="93" height="24" viewBox="0 0 93 24" fill="none" xmlns="http://www.w3.org/2000/svg">
<path d="M53.3451 10.0334L46.8646 14.6376L49.3692 22.1693L49.9232 23.8346L49.9777 24L49.7456 23.8346L48.3848 22.8684L43.5462 19.4315L41.8315 18.2132L35.2778 22.8684L34.1171 23.6926L34.5607 22.3581L34.9883 21.0738C36.0738 19.4793 37.4633 17.8543 39.1094 16.2799C40.6361 14.8156 42.3851 13.3954 44.3192 12.0787C44.6589 11.8472 45.0005 11.6219 45.3422 11.403C42.0829 11.8571 39.2268 12.9807 37.163 14.5335C37.0789 14.5954 36.9981 14.6577 36.9182 14.7228L28.8801 9.01289H38.9989L41.9964 0L44.994 9.01289H54.782L53.3451 10.0334Z" fill="url(#paint0_linear_2005_921)"/>
<path d="M16.0602 13.1708C15.6189 12.3897 15.04 11.7726 14.3229 11.3176C13.6059 10.8636 12.6214 10.4048 11.3682 9.94096C9.99138 9.41008 9.08776 8.98181 8.65638 8.65568C8.22361 8.32862 8.00839 7.89145 8.00839 7.34182C8.00839 6.86904 8.19118 6.45436 8.5563 6.10012C8.92188 5.74448 9.41763 5.56736 10.0435 5.56736C11.3828 5.56736 12.3033 6.3672 12.8061 7.96736L16.3379 6.61835C15.5024 3.60781 13.3949 2.10324 10.0163 2.10324C8.1644 2.10324 6.67716 2.65943 5.55221 3.77134C4.42726 4.88419 3.86432 6.31097 3.86432 8.05217C3.86432 9.07458 4.10115 9.98548 4.57622 10.7849C5.05129 11.5856 5.65371 12.2009 6.38441 12.6315C7.11511 13.0616 8.22643 13.5424 9.71649 14.0723C10.8739 14.4889 11.6149 14.8839 11.9377 15.2578C12.2605 15.6322 12.4217 16.0553 12.4217 16.5281C12.4217 17.1536 12.1915 17.6578 11.7314 18.0406C11.2714 18.4239 10.6709 18.6155 9.92982 18.6155C8.30631 18.6155 7.26735 17.6405 6.81202 15.6907L3.08099 16.7553C4.05886 20.3057 6.30828 22.0801 9.8302 22.0801C11.9278 22.0801 13.6007 21.5 14.8492 20.3408C16.0978 19.1806 16.7218 17.6976 16.7218 15.8894C16.7218 14.8576 16.5014 13.9519 16.0602 13.1708ZM17.819 2.10277V5.73745H21.6915V22.0937H25.9638V5.73745H29.9359V2.10277H17.819ZM89.919 10.3749V13.6248H83.9935V19.5335H80.7342V13.6248H74.8088V10.3749H80.7342V4.46623H83.9935V10.3749H89.919ZM65.6241 14.2424L64.9258 13.294C65.164 13.2683 65.3971 13.227 65.6241 13.1717C66.6569 12.9243 67.5807 12.3948 68.3063 11.6709C69.3335 10.6466 69.9692 9.23062 69.9692 7.66654C69.9692 4.99664 68.1164 2.75924 65.6236 2.16134C65.196 2.05779 64.7496 2.00391 64.2905 2.00391H56.2415V21.9953H60.3893V13.6384L67.0281 21.9953H71.8178L65.6241 14.2424ZM60.3898 10.2765V5.46662H63.416C64.4578 5.46662 65.3379 6.15494 65.6241 7.10051C65.6884 7.31136 65.7227 7.53581 65.7227 7.76728V7.97626C65.7227 8.20773 65.688 8.43218 65.6241 8.64303C65.3374 9.5886 64.4578 10.2769 63.416 10.2769H60.3898V10.2765Z" fill="black"/>
<defs>
<linearGradient id="paint0_linear_2005_921" x1="53.8803" y1="7.4557" x2="32.0385" y2="20.102" gradientUnits="userSpaceOnUse">
<stop offset="0.004" stop-color="#F7931E"/>
<stop offset="1" stop-color="#C1272D"/>
</linearGradient>
</defs>
</svg>
