<svg width="67" height="27" viewBox="0 0 67 27" fill="none" xmlns="http://www.w3.org/2000/svg">
<path d="M7.4061 20.3142C6.30476 20.3142 5.2501 20.1415 4.2421 19.7962C3.24343 19.4509 2.3661 18.9515 1.6101 18.2982C0.863431 17.6449 0.326764 16.8702 9.76771e-05 15.9742L3.6261 14.6302C3.7381 14.9475 3.97143 15.2462 4.3261 15.5262C4.68076 15.7969 5.1241 16.0209 5.6561 16.1982C6.1881 16.3662 6.77143 16.4502 7.4061 16.4502C8.01276 16.4502 8.5821 16.3615 9.1141 16.1842C9.65543 15.9975 10.0894 15.7409 10.4161 15.4142C10.7521 15.0875 10.9201 14.7049 10.9201 14.2662C10.9201 13.8275 10.7474 13.4635 10.4021 13.1742C10.0568 12.8849 9.61343 12.6562 9.0721 12.4882C8.53076 12.3109 7.97543 12.1755 7.4061 12.0822C5.99676 11.8769 4.7321 11.5455 3.6121 11.0882C2.50143 10.6215 1.6241 9.98219 0.980098 9.17019C0.336098 8.34886 0.0140977 7.30819 0.0140977 6.04819C0.0140977 4.83486 0.354764 3.77553 1.0361 2.87019C1.72676 1.96486 2.6321 1.26019 3.7521 0.756195C4.88143 0.252194 6.09943 0.000194311 7.4061 0.000194311C8.48876 0.000194311 9.5341 0.172861 10.5421 0.518195C11.5501 0.863528 12.4274 1.36286 13.1741 2.0162C13.9301 2.66953 14.4714 3.45353 14.7981 4.36819L11.1721 5.68419C11.0601 5.36686 10.8268 5.07286 10.4721 4.8022C10.1174 4.53153 9.6741 4.31219 9.1421 4.14419C8.6101 3.97619 8.03143 3.89219 7.4061 3.89219C6.80876 3.88286 6.23943 3.97153 5.6981 4.1582C5.1661 4.34486 4.72743 4.60153 4.3821 4.92819C4.0461 5.25486 3.8781 5.62819 3.8781 6.04819C3.8781 6.59886 4.03676 7.01419 4.3541 7.29419C4.68076 7.57419 5.1101 7.77486 5.6421 7.89619C6.1741 8.01753 6.7621 8.12486 7.4061 8.21819C8.73143 8.41419 9.9541 8.76419 11.0741 9.2682C12.1941 9.76286 13.0901 10.4255 13.7621 11.2562C14.4434 12.0775 14.7841 13.0809 14.7841 14.2662C14.7841 15.4795 14.4434 16.5389 13.7621 17.4442C13.0808 18.3495 12.1801 19.0542 11.0601 19.5582C9.9401 20.0622 8.7221 20.3142 7.4061 20.3142ZM25.1227 9.81419H22.6027V19.9502H18.7387V9.81419H16.8067V5.9502H18.7387V1.5542H22.6027V5.9502H25.1227V9.81419ZM33.5104 20.3142C32.2224 20.3142 31.0464 19.9829 29.9824 19.3202C28.9277 18.6575 28.0831 17.7709 27.4484 16.6602C26.8231 15.5402 26.5104 14.3035 26.5104 12.9502C26.5104 11.9235 26.6924 10.9669 27.0564 10.0802C27.4204 9.18419 27.9197 8.40019 28.5544 7.72819C29.1984 7.04686 29.9451 6.51486 30.7944 6.13219C31.6437 5.74953 32.5491 5.5582 33.5104 5.5582C34.7984 5.5582 35.9697 5.88953 37.0244 6.5522C38.0884 7.21486 38.9331 8.10619 39.5584 9.22619C40.1931 10.3462 40.5104 11.5875 40.5104 12.9502C40.5104 13.9675 40.3284 14.9195 39.9644 15.8062C39.6004 16.6929 39.0964 17.4769 38.4524 18.1582C37.8177 18.8302 37.0757 19.3575 36.2264 19.7402C35.3864 20.1229 34.4811 20.3142 33.5104 20.3142ZM33.5104 16.4502C34.1077 16.4502 34.6444 16.2915 35.1204 15.9742C35.5964 15.6475 35.9697 15.2182 36.2404 14.6862C36.5111 14.1542 36.6464 13.5755 36.6464 12.9502C36.6464 12.3062 36.5017 11.7182 36.2124 11.1862C35.9324 10.6449 35.5544 10.2155 35.0784 9.89819C34.6024 9.58086 34.0797 9.42219 33.5104 9.42219C32.9224 9.42219 32.3904 9.58553 31.9144 9.9122C31.4384 10.2389 31.0604 10.6682 30.7804 11.2002C30.5097 11.7322 30.3744 12.3155 30.3744 12.9502C30.3744 13.6129 30.5144 14.2102 30.7944 14.7422C31.0837 15.2649 31.4664 15.6802 31.9424 15.9882C32.4184 16.2962 32.9411 16.4502 33.5104 16.4502ZM42.6496 19.9502L42.6356 5.9502H46.4996L46.5136 6.98619C46.9802 6.53819 47.5262 6.18819 48.1516 5.93619C48.7862 5.6842 49.4536 5.5582 50.1536 5.5582C50.6669 5.5582 51.1802 5.63286 51.6936 5.78219L50.1676 9.68819C49.8316 9.54819 49.4909 9.47819 49.1456 9.47819C48.6602 9.47819 48.2169 9.59486 47.8156 9.82819C47.4142 10.0615 47.0969 10.3789 46.8636 10.7802C46.6302 11.1722 46.5136 11.6155 46.5136 12.1102V19.9502H42.6496ZM62.7396 5.9502H66.8556L59.1836 26.9502H55.0956L57.6156 19.9502L52.5756 5.9502H56.8036L59.5476 14.6722L62.7396 5.9502Z" fill="#5B6A2E"/>
</svg>
