<svg width="97" height="21" viewBox="0 0 97 21" fill="none" xmlns="http://www.w3.org/2000/svg">
<path d="M7.1261 20.258C6.08076 20.258 5.0681 20.0947 4.0881 19.768C3.11743 19.4414 2.2681 18.9747 1.5401 18.368C0.812098 17.7614 0.298764 17.038 9.76771e-05 16.198L1.8341 15.512C2.03943 16.0907 2.41276 16.59 2.9541 17.01C3.50476 17.4207 4.1441 17.738 4.8721 17.962C5.60943 18.186 6.36076 18.298 7.1261 18.298C8.0221 18.298 8.85743 18.1487 9.6321 17.85C10.4068 17.5514 11.0321 17.136 11.5081 16.604C11.9841 16.0627 12.2221 15.428 12.2221 14.7C12.2221 13.9627 11.9748 13.356 11.4801 12.88C10.9854 12.404 10.3461 12.0307 9.5621 11.76C8.78743 11.48 7.97543 11.2654 7.1261 11.116C5.79143 10.8827 4.5921 10.5654 3.5281 10.164C2.47343 9.76271 1.6381 9.19804 1.0221 8.47004C0.406098 7.73271 0.0980978 6.76204 0.0980978 5.55804C0.0980978 4.42871 0.424764 3.44871 1.0781 2.61804C1.73143 1.78738 2.5901 1.14338 3.6541 0.686042C4.72743 0.228708 5.88476 4.12464e-05 7.1261 4.12464e-05C8.14343 4.12464e-05 9.13743 0.158708 10.1081 0.476042C11.0788 0.793375 11.9328 1.25538 12.6701 1.86204C13.4168 2.46871 13.9534 3.21071 14.2801 4.08804L12.4181 4.76004C12.2128 4.17204 11.8348 3.67271 11.2841 3.26204C10.7428 2.84204 10.1081 2.52471 9.3801 2.31004C8.6521 2.08604 7.90076 1.97404 7.1261 1.97404C6.23943 1.96471 5.40876 2.11404 4.6341 2.42204C3.86876 2.72071 3.2481 3.14071 2.7721 3.68204C2.2961 4.21404 2.0581 4.83938 2.0581 5.55804C2.0581 6.39804 2.27743 7.04671 2.7161 7.50404C3.1641 7.95204 3.77076 8.28804 4.5361 8.51204C5.30143 8.73604 6.16476 8.93671 7.1261 9.11404C8.37676 9.32871 9.53876 9.66471 10.6121 10.122C11.6854 10.57 12.5488 11.172 13.2021 11.928C13.8554 12.6747 14.1821 13.5987 14.1821 14.7C14.1821 15.82 13.8554 16.8 13.2021 17.64C12.5488 18.4707 11.6854 19.1147 10.6121 19.572C9.5481 20.0294 8.3861 20.258 7.1261 20.258ZM16.6732 14.532V5.89404H18.6332V14.14C18.6332 14.9054 18.8199 15.6007 19.1932 16.226C19.5666 16.8514 20.0659 17.3507 20.6912 17.724C21.3259 18.0974 22.0212 18.284 22.7772 18.284C23.5426 18.284 24.2332 18.0974 24.8492 17.724C25.4746 17.3507 25.9739 16.8514 26.3472 16.226C26.7206 15.6007 26.9072 14.9054 26.9072 14.14V5.89404H28.8672L28.8812 19.894H26.9212L26.9072 17.934C26.4126 18.6434 25.7686 19.208 24.9752 19.628C24.1912 20.048 23.3326 20.258 22.3992 20.258C21.3446 20.258 20.3832 20.0014 19.5152 19.488C18.6472 18.9747 17.9566 18.284 17.4432 17.416C16.9299 16.548 16.6732 15.5867 16.6732 14.532ZM41.5573 16.38L43.3073 17.332C42.6727 18.2187 41.8653 18.928 40.8853 19.46C39.9147 19.992 38.86 20.258 37.7213 20.258C36.4333 20.258 35.2573 19.9267 34.1933 19.264C33.1387 18.6014 32.294 17.7147 31.6593 16.604C31.034 15.484 30.7213 14.2474 30.7213 12.894C30.7213 11.8674 30.9033 10.9107 31.2673 10.024C31.6313 9.12804 32.1307 8.34404 32.7653 7.67204C33.4093 6.99071 34.156 6.45871 35.0053 6.07604C35.8547 5.69338 36.76 5.50204 37.7213 5.50204C38.86 5.50204 39.9147 5.76804 40.8853 6.30004C41.8653 6.83204 42.6727 7.54604 43.3073 8.44204L41.5573 9.38004C41.072 8.76404 40.4887 8.29271 39.8073 7.96604C39.126 7.63004 38.4307 7.46204 37.7213 7.46204C36.7787 7.46204 35.9247 7.71404 35.1593 8.21804C34.394 8.71271 33.7873 9.37071 33.3393 10.192C32.9007 11.0134 32.6813 11.914 32.6813 12.894C32.6813 13.874 32.9053 14.7747 33.3533 15.596C33.8107 16.4174 34.422 17.0754 35.1873 17.57C35.9527 18.0554 36.7973 18.298 37.7213 18.298C38.4867 18.298 39.2053 18.1207 39.8773 17.766C40.5493 17.4114 41.1093 16.9494 41.5573 16.38ZM55.6394 16.38L57.3894 17.332C56.7547 18.2187 55.9474 18.928 54.9674 19.46C53.9967 19.992 52.942 20.258 51.8034 20.258C50.5154 20.258 49.3394 19.9267 48.2754 19.264C47.2207 18.6014 46.376 17.7147 45.7414 16.604C45.116 15.484 44.8034 14.2474 44.8034 12.894C44.8034 11.8674 44.9854 10.9107 45.3494 10.024C45.7134 9.12804 46.2127 8.34404 46.8474 7.67204C47.4914 6.99071 48.238 6.45871 49.0874 6.07604C49.9367 5.69338 50.842 5.50204 51.8034 5.50204C52.942 5.50204 53.9967 5.76804 54.9674 6.30004C55.9474 6.83204 56.7547 7.54604 57.3894 8.44204L55.6394 9.38004C55.154 8.76404 54.5707 8.29271 53.8894 7.96604C53.208 7.63004 52.5127 7.46204 51.8034 7.46204C50.8607 7.46204 50.0067 7.71404 49.2414 8.21804C48.476 8.71271 47.8694 9.37071 47.4214 10.192C46.9827 11.0134 46.7634 11.914 46.7634 12.894C46.7634 13.874 46.9874 14.7747 47.4354 15.596C47.8927 16.4174 48.504 17.0754 49.2694 17.57C50.0347 18.0554 50.8794 18.298 51.8034 18.298C52.5687 18.298 53.2874 18.1207 53.9594 17.766C54.6314 17.4114 55.1914 16.9494 55.6394 16.38ZM65.8854 20.258C64.5974 20.258 63.4214 19.9267 62.3574 19.264C61.3027 18.6014 60.4581 17.7147 59.8234 16.604C59.1981 15.484 58.8854 14.2474 58.8854 12.894C58.8854 11.8674 59.0674 10.9107 59.4314 10.024C59.7954 9.12804 60.2947 8.34404 60.9294 7.67204C61.5734 6.99071 62.3201 6.45871 63.1694 6.07604C64.0187 5.69338 64.9241 5.50204 65.8854 5.50204C66.9214 5.50204 67.8734 5.70738 68.7414 6.11804C69.6187 6.52871 70.3701 7.10271 70.9954 7.84004C71.6301 8.57738 72.1061 9.44071 72.4234 10.43C72.7501 11.4194 72.8854 12.488 72.8294 13.636H60.9574C61.0694 14.5227 61.3494 15.316 61.7974 16.016C62.2547 16.716 62.8334 17.2714 63.5334 17.682C64.2427 18.0834 65.0267 18.2887 65.8854 18.298C66.8187 18.298 67.6587 18.0554 68.4054 17.57C69.1614 17.0847 69.7681 16.4174 70.2254 15.568L72.2134 16.03C71.6534 17.2714 70.8087 18.2887 69.6794 19.082C68.5501 19.866 67.2854 20.258 65.8854 20.258ZM60.9014 12.054H70.8554C70.7901 11.186 70.5241 10.3927 70.0574 9.67404C69.6001 8.94604 69.0074 8.36738 68.2794 7.93804C67.5514 7.49938 66.7534 7.28004 65.8854 7.28004C65.0174 7.28004 64.2241 7.49471 63.5054 7.92404C62.7867 8.34404 62.1987 8.91804 61.7414 9.64604C61.2841 10.3647 61.0041 11.1674 60.9014 12.054ZM79.5827 20.16C78.8173 20.1414 78.0707 20.0014 77.3427 19.74C76.6147 19.4787 75.98 19.124 75.4387 18.676C74.8973 18.228 74.51 17.7194 74.2767 17.15L75.9707 16.422C76.12 16.786 76.3953 17.122 76.7967 17.43C77.2073 17.7287 77.674 17.9714 78.1967 18.158C78.7193 18.3354 79.2373 18.424 79.7507 18.424C80.32 18.424 80.852 18.3307 81.3467 18.144C81.8413 17.9574 82.2427 17.6914 82.5507 17.346C82.868 16.9914 83.0267 16.576 83.0267 16.1C83.0267 15.5867 82.8587 15.1854 82.5227 14.896C82.1867 14.5974 81.762 14.364 81.2487 14.196C80.7353 14.0187 80.208 13.8507 79.6667 13.692C78.6773 13.4214 77.8047 13.1227 77.0487 12.796C76.2927 12.4694 75.7 12.054 75.2707 11.55C74.8507 11.0367 74.6407 10.3787 74.6407 9.57604C74.6407 8.72671 74.8787 7.99404 75.3547 7.37804C75.84 6.75271 76.47 6.27204 77.2447 5.93604C78.0287 5.59071 78.864 5.41804 79.7507 5.41804C80.8893 5.41804 81.9253 5.66538 82.8587 6.16004C83.8013 6.65471 84.4827 7.31271 84.9027 8.13404L83.3207 9.07204C83.1527 8.68938 82.8867 8.35804 82.5227 8.07804C82.1587 7.79804 81.7433 7.57871 81.2767 7.42004C80.8193 7.26138 80.3527 7.17738 79.8767 7.16804C79.2793 7.15871 78.724 7.24738 78.2107 7.43404C77.6973 7.61138 77.282 7.87738 76.9647 8.23204C76.6567 8.58671 76.5027 9.02071 76.5027 9.53404C76.5027 10.0474 76.6567 10.4394 76.9647 10.71C77.2727 10.9714 77.688 11.186 78.2107 11.354C78.7427 11.5127 79.34 11.6994 80.0027 11.914C80.852 12.1847 81.65 12.4927 82.3967 12.838C83.1433 13.1834 83.7453 13.6127 84.2027 14.126C84.66 14.6394 84.884 15.288 84.8747 16.072C84.8747 16.912 84.6227 17.6447 84.1187 18.27C83.6147 18.8954 82.9613 19.376 82.1587 19.712C81.356 20.0387 80.4973 20.188 79.5827 20.16ZM91.6139 20.16C90.8486 20.1414 90.1019 20.0014 89.3739 19.74C88.6459 19.4787 88.0112 19.124 87.4699 18.676C86.9286 18.228 86.5412 17.7194 86.3079 17.15L88.0019 16.422C88.1512 16.786 88.4266 17.122 88.8279 17.43C89.2386 17.7287 89.7052 17.9714 90.2279 18.158C90.7506 18.3354 91.2686 18.424 91.7819 18.424C92.3512 18.424 92.8832 18.3307 93.3779 18.144C93.8726 17.9574 94.2739 17.6914 94.5819 17.346C94.8992 16.9914 95.0579 16.576 95.0579 16.1C95.0579 15.5867 94.8899 15.1854 94.5539 14.896C94.2179 14.5974 93.7932 14.364 93.2799 14.196C92.7666 14.0187 92.2392 13.8507 91.6979 13.692C90.7086 13.4214 89.8359 13.1227 89.0799 12.796C88.3239 12.4694 87.7312 12.054 87.3019 11.55C86.8819 11.0367 86.6719 10.3787 86.6719 9.57604C86.6719 8.72671 86.9099 7.99404 87.3859 7.37804C87.8712 6.75271 88.5012 6.27204 89.2759 5.93604C90.0599 5.59071 90.8952 5.41804 91.7819 5.41804C92.9206 5.41804 93.9566 5.66538 94.8899 6.16004C95.8326 6.65471 96.5139 7.31271 96.9339 8.13404L95.3519 9.07204C95.1839 8.68938 94.9179 8.35804 94.5539 8.07804C94.1899 7.79804 93.7746 7.57871 93.3079 7.42004C92.8506 7.26138 92.3839 7.17738 91.9079 7.16804C91.3106 7.15871 90.7552 7.24738 90.2419 7.43404C89.7286 7.61138 89.3132 7.87738 88.9959 8.23204C88.6879 8.58671 88.5339 9.02071 88.5339 9.53404C88.5339 10.0474 88.6879 10.4394 88.9959 10.71C89.3039 10.9714 89.7192 11.186 90.2419 11.354C90.7739 11.5127 91.3712 11.6994 92.0339 11.914C92.8832 12.1847 93.6812 12.4927 94.4279 12.838C95.1746 13.1834 95.7766 13.6127 96.2339 14.126C96.6912 14.6394 96.9152 15.288 96.9059 16.072C96.9059 16.912 96.6539 17.6447 96.1499 18.27C95.6459 18.8954 94.9926 19.376 94.1899 19.712C93.3872 20.0387 92.5286 20.188 91.6139 20.16Z" fill="black" fill-opacity="0.5"/>
</svg>
