<svg width="187" height="22" viewBox="0 0 187 22" fill="none" xmlns="http://www.w3.org/2000/svg">
<path d="M15.3859 1.4V3.36H8.66588V21H6.70588V3.36H-0.000117108V1.4H15.3859ZM22.1691 21.364C20.8811 21.364 19.7051 21.0327 18.6411 20.37C17.5864 19.7073 16.7418 18.8207 16.1071 17.71C15.4818 16.59 15.1691 15.3533 15.1691 14C15.1691 12.9733 15.3511 12.0167 15.7151 11.13C16.0791 10.234 16.5784 9.45 17.2131 8.778C17.8571 8.09667 18.6038 7.56467 19.4531 7.182C20.3024 6.79933 21.2078 6.608 22.1691 6.608C23.2051 6.608 24.1571 6.81333 25.0251 7.224C25.9024 7.63467 26.6538 8.20867 27.2791 8.946C27.9138 9.68333 28.3898 10.5467 28.7071 11.536C29.0338 12.5253 29.1691 13.594 29.1131 14.742H17.2411C17.3531 15.6287 17.6331 16.422 18.0811 17.122C18.5384 17.822 19.1171 18.3773 19.8171 18.788C20.5264 19.1893 21.3104 19.3947 22.1691 19.404C23.1024 19.404 23.9424 19.1613 24.6891 18.676C25.4451 18.1907 26.0518 17.5233 26.5091 16.674L28.4971 17.136C27.9371 18.3773 27.0924 19.3947 25.9631 20.188C24.8338 20.972 23.5691 21.364 22.1691 21.364ZM17.1851 13.16H27.1391C27.0738 12.292 26.8078 11.4987 26.3411 10.78C25.8838 10.052 25.2911 9.47333 24.5631 9.044C23.8351 8.60533 23.0371 8.386 22.1691 8.386C21.3011 8.386 20.5078 8.60067 19.7891 9.03C19.0704 9.45 18.4824 10.024 18.0251 10.752C17.5678 11.4707 17.2878 12.2733 17.1851 13.16ZM42.8843 7H44.8443V21H42.8843L42.8143 18.396C42.357 19.2827 41.7176 20.0013 40.8963 20.552C40.075 21.0933 39.095 21.364 37.9563 21.364C36.9296 21.364 35.9683 21.1727 35.0723 20.79C34.1763 20.398 33.3876 19.8613 32.7063 19.18C32.025 18.4987 31.493 17.71 31.1103 16.814C30.7276 15.918 30.5363 14.9567 30.5363 13.93C30.5363 12.922 30.723 11.9747 31.0963 11.088C31.479 10.2013 32.0016 9.422 32.6643 8.75C33.3363 8.078 34.111 7.55533 34.9883 7.182C35.875 6.79933 36.8223 6.608 37.8303 6.608C38.997 6.608 40.0143 6.888 40.8823 7.448C41.7503 7.99867 42.441 8.722 42.9543 9.618L42.8843 7ZM37.9143 19.46C38.913 19.46 39.7716 19.2173 40.4903 18.732C41.209 18.2373 41.7596 17.5747 42.1423 16.744C42.5343 15.9133 42.7303 14.9987 42.7303 14C42.7303 12.9733 42.5343 12.0493 42.1423 11.228C41.7503 10.3973 41.195 9.73933 40.4763 9.254C39.7576 8.76867 38.9036 8.526 37.9143 8.526C36.925 8.526 36.0196 8.77333 35.1983 9.268C34.3863 9.75333 33.7376 10.4113 33.2523 11.242C32.7763 12.0727 32.5383 12.992 32.5383 14C32.5383 15.0173 32.7856 15.9413 33.2803 16.772C33.775 17.5933 34.4283 18.2467 35.2403 18.732C36.0616 19.2173 36.953 19.46 37.9143 19.46ZM47.6458 21V7H49.6058V8.932C50.1098 8.22267 50.7538 7.658 51.5378 7.238C52.3218 6.818 53.1805 6.608 54.1138 6.608C55.1685 6.608 56.1345 6.86933 57.0118 7.392C57.8892 7.90533 58.5752 8.59133 59.0698 9.45C59.5645 8.59133 60.2458 7.90533 61.1138 7.392C61.9818 6.86933 62.9432 6.608 63.9978 6.608C65.0525 6.608 66.0138 6.86467 66.8818 7.378C67.7498 7.89133 68.4405 8.582 68.9538 9.45C69.4672 10.318 69.7238 11.2793 69.7238 12.334V21H67.7638V12.768C67.7638 12.0213 67.5818 11.3307 67.2178 10.696C66.8538 10.0613 66.3638 9.55267 65.7478 9.17C65.1412 8.778 64.4645 8.582 63.7178 8.582C62.9712 8.582 62.2898 8.764 61.6738 9.128C61.0672 9.48267 60.5818 9.97733 60.2178 10.612C59.8538 11.2373 59.6718 11.956 59.6718 12.768V21H57.7118V12.768C57.7118 11.956 57.5298 11.2373 57.1658 10.612C56.8018 9.97733 56.3118 9.48267 55.6958 9.128C55.0798 8.764 54.3985 8.582 53.6518 8.582C52.9145 8.582 52.2378 8.778 51.6218 9.17C51.0058 9.55267 50.5158 10.0613 50.1518 10.696C49.7878 11.3307 49.6058 12.0213 49.6058 12.768V21H47.6458ZM84.3652 21.364C83.2545 21.364 82.2699 21.098 81.4112 20.566C80.5619 20.0247 79.8945 19.32 79.4092 18.452C78.9332 17.584 78.6952 16.6553 78.6952 15.666C78.6952 15.0593 78.7559 14.532 78.8772 14.084C79.0079 13.636 79.2272 13.1927 79.5352 12.754C79.8525 12.3153 80.2912 11.8067 80.8512 11.228C81.4112 10.6493 82.1252 9.926 82.9932 9.058C82.4799 8.53533 82.0552 8.09667 81.7192 7.742C81.3925 7.38733 81.1359 7.07 80.9492 6.79C80.7625 6.50067 80.6319 6.21133 80.5572 5.922C80.4825 5.62333 80.4452 5.278 80.4452 4.886C80.4452 4.14867 80.6225 3.48133 80.9772 2.884C81.3412 2.28667 81.8219 1.81533 82.4192 1.47C83.0165 1.11533 83.6652 0.937999 84.3652 0.937999C85.0932 0.937999 85.7559 1.11533 86.3532 1.47C86.9505 1.82467 87.4265 2.30067 87.7812 2.898C88.1359 3.486 88.3132 4.14867 88.3132 4.886C88.3132 5.28733 88.2712 5.642 88.1872 5.95C88.1125 6.24867 87.9772 6.54267 87.7812 6.832C87.5945 7.12133 87.3332 7.44333 86.9972 7.798C86.6705 8.14333 86.2599 8.56333 85.7652 9.058L91.0012 14.294L94.0812 11.214V13.986L92.3592 15.708L96.2932 19.614L94.9072 21L91.0012 17.108C90.1239 17.9853 89.3912 18.704 88.8032 19.264C88.2245 19.8147 87.7159 20.244 87.2772 20.552C86.8385 20.86 86.3952 21.07 85.9472 21.182C85.5085 21.3033 84.9812 21.364 84.3652 21.364ZM84.3652 19.404C84.8319 19.404 85.2285 19.3527 85.5552 19.25C85.8819 19.1473 86.2132 18.9653 86.5492 18.704C86.8945 18.4333 87.3005 18.0553 87.7672 17.57C88.2432 17.0847 88.8592 16.4593 89.6152 15.694L84.3652 10.444C83.5905 11.228 82.9605 11.8627 82.4752 12.348C81.9899 12.8333 81.6165 13.244 81.3552 13.58C81.0939 13.9067 80.9119 14.2333 80.8092 14.56C80.7159 14.8773 80.6692 15.26 80.6692 15.708C80.6692 16.3987 80.8372 17.024 81.1732 17.584C81.5092 18.144 81.9572 18.5873 82.5172 18.914C83.0772 19.2407 83.6932 19.404 84.3652 19.404ZM84.3652 7.896C84.9719 7.29867 85.4292 6.846 85.7372 6.538C86.0452 6.23 86.2552 5.964 86.3672 5.74C86.4792 5.50667 86.5352 5.21267 86.5352 4.858C86.5352 4.242 86.3159 3.72867 85.8772 3.318C85.4479 2.90733 84.9439 2.702 84.3652 2.702C83.7679 2.702 83.2592 2.91667 82.8392 3.346C82.4285 3.77533 82.2232 4.27933 82.2232 4.858C82.2232 5.21267 82.2839 5.51133 82.4052 5.754C82.5265 5.98733 82.7412 6.258 83.0492 6.566C83.3572 6.874 83.7959 7.31733 84.3652 7.896ZM114.906 21.364C113.581 21.364 112.335 21.1027 111.168 20.58C110.001 20.048 108.975 19.3153 108.088 18.382C107.201 17.4487 106.506 16.3707 106.002 15.148C105.498 13.916 105.246 12.6 105.246 11.2C105.246 9.8 105.498 8.48867 106.002 7.266C106.506 6.034 107.201 4.95133 108.088 4.018C108.975 3.08467 110.001 2.35667 111.168 1.834C112.335 1.302 113.581 1.036 114.906 1.036C116.241 1.036 117.491 1.302 118.658 1.834C119.825 2.35667 120.851 3.08467 121.738 4.018C122.625 4.95133 123.315 6.034 123.81 7.266C124.314 8.48867 124.566 9.8 124.566 11.2C124.566 12.6 124.314 13.916 123.81 15.148C123.315 16.3707 122.625 17.4487 121.738 18.382C120.851 19.3153 119.825 20.048 118.658 20.58C117.491 21.1027 116.241 21.364 114.906 21.364ZM114.906 19.404C115.979 19.404 116.978 19.1893 117.902 18.76C118.835 18.3213 119.652 17.724 120.352 16.968C121.061 16.212 121.612 15.3393 122.004 14.35C122.405 13.3607 122.606 12.3107 122.606 11.2C122.606 10.08 122.405 9.02533 122.004 8.036C121.603 7.03733 121.047 6.16467 120.338 5.418C119.638 4.662 118.821 4.06933 117.888 3.64C116.964 3.21067 115.97 2.996 114.906 2.996C113.833 2.996 112.829 3.21533 111.896 3.654C110.972 4.08333 110.155 4.676 109.446 5.432C108.746 6.188 108.195 7.06067 107.794 8.05C107.402 9.03933 107.206 10.0893 107.206 11.2C107.206 12.3293 107.407 13.3887 107.808 14.378C108.209 15.3673 108.76 16.24 109.46 16.996C110.169 17.752 110.986 18.3447 111.91 18.774C112.843 19.194 113.842 19.404 114.906 19.404ZM134.507 8.96H131.161L131.147 21H129.187L129.201 8.96H126.667V7H129.201L129.187 2.604H131.147L131.161 7H134.507V8.96ZM149.213 12.334V21H147.253V12.726C147.253 11.9607 147.067 11.2653 146.693 10.64C146.32 10.0147 145.821 9.51533 145.195 9.142C144.57 8.76867 143.875 8.582 143.109 8.582C142.353 8.582 141.658 8.76867 141.023 9.142C140.398 9.51533 139.899 10.0147 139.525 10.64C139.152 11.2653 138.965 11.9607 138.965 12.726V21H137.005V-1.66893e-06H138.965V8.932C139.46 8.22267 140.104 7.658 140.897 7.238C141.691 6.818 142.554 6.608 143.487 6.608C144.542 6.608 145.503 6.86467 146.371 7.378C147.239 7.89133 147.93 8.582 148.443 9.45C148.957 10.318 149.213 11.2793 149.213 12.334ZM157.903 21.364C156.615 21.364 155.439 21.0327 154.375 20.37C153.321 19.7073 152.476 18.8207 151.841 17.71C151.216 16.59 150.903 15.3533 150.903 14C150.903 12.9733 151.085 12.0167 151.449 11.13C151.813 10.234 152.313 9.45 152.947 8.778C153.591 8.09667 154.338 7.56467 155.187 7.182C156.037 6.79933 156.942 6.608 157.903 6.608C158.939 6.608 159.891 6.81333 160.759 7.224C161.637 7.63467 162.388 8.20867 163.013 8.946C163.648 9.68333 164.124 10.5467 164.441 11.536C164.768 12.5253 164.903 13.594 164.847 14.742H152.975C153.087 15.6287 153.367 16.422 153.815 17.122C154.273 17.822 154.851 18.3773 155.551 18.788C156.261 19.1893 157.045 19.3947 157.903 19.404C158.837 19.404 159.677 19.1613 160.423 18.676C161.179 18.1907 161.786 17.5233 162.243 16.674L164.231 17.136C163.671 18.3773 162.827 19.3947 161.697 20.188C160.568 20.972 159.303 21.364 157.903 21.364ZM152.919 13.16H162.873C162.808 12.292 162.542 11.4987 162.075 10.78C161.618 10.052 161.025 9.47333 160.297 9.044C159.569 8.60533 158.771 8.386 157.903 8.386C157.035 8.386 156.242 8.60067 155.523 9.03C154.805 9.45 154.217 10.024 153.759 10.752C153.302 11.4707 153.022 12.2733 152.919 13.16ZM167.247 21V7H169.207V8.932C169.702 8.22267 170.346 7.658 171.139 7.238C171.933 6.818 172.796 6.608 173.729 6.608C174.271 6.608 174.793 6.678 175.297 6.818L174.499 8.764C174.107 8.64267 173.725 8.582 173.351 8.582C172.595 8.582 171.9 8.76867 171.265 9.142C170.64 9.51533 170.141 10.0147 169.767 10.64C169.394 11.2653 169.207 11.9607 169.207 12.726V21H167.247ZM181.39 21.266C180.624 21.2473 179.878 21.1073 179.15 20.846C178.422 20.5847 177.787 20.23 177.246 19.782C176.704 19.334 176.317 18.8253 176.084 18.256L177.778 17.528C177.927 17.892 178.202 18.228 178.604 18.536C179.014 18.8347 179.481 19.0773 180.004 19.264C180.526 19.4413 181.044 19.53 181.558 19.53C182.127 19.53 182.659 19.4367 183.154 19.25C183.648 19.0633 184.05 18.7973 184.358 18.452C184.675 18.0973 184.834 17.682 184.834 17.206C184.834 16.6927 184.666 16.2913 184.33 16.002C183.994 15.7033 183.569 15.47 183.056 15.302C182.542 15.1247 182.015 14.9567 181.474 14.798C180.484 14.5273 179.612 14.2287 178.856 13.902C178.1 13.5753 177.507 13.16 177.078 12.656C176.658 12.1427 176.448 11.4847 176.448 10.682C176.448 9.83267 176.686 9.1 177.162 8.484C177.647 7.85867 178.277 7.378 179.052 7.042C179.836 6.69667 180.671 6.524 181.558 6.524C182.696 6.524 183.732 6.77133 184.666 7.266C185.608 7.76067 186.29 8.41867 186.71 9.24L185.128 10.178C184.96 9.79533 184.694 9.464 184.33 9.184C183.966 8.904 183.55 8.68467 183.084 8.526C182.626 8.36733 182.16 8.28333 181.684 8.274C181.086 8.26467 180.531 8.35333 180.018 8.54C179.504 8.71733 179.089 8.98333 178.772 9.338C178.464 9.69267 178.31 10.1267 178.31 10.64C178.31 11.1533 178.464 11.5453 178.772 11.816C179.08 12.0773 179.495 12.292 180.018 12.46C180.55 12.6187 181.147 12.8053 181.81 13.02C182.659 13.2907 183.457 13.5987 184.204 13.944C184.95 14.2893 185.552 14.7187 186.01 15.232C186.467 15.7453 186.691 16.394 186.682 17.178C186.682 18.018 186.43 18.7507 185.926 19.376C185.422 20.0013 184.768 20.482 183.966 20.818C183.163 21.1447 182.304 21.294 181.39 21.266Z" fill="black" fill-opacity="0.5"/>
</svg>
